<?xml version="1.0" encoding="UTF-8"?>
<svg version="1.1" xmlns="http://www.w3.org/2000/svg" width="500" height="500">
<path d="M0 0 C165 0 330 0 500 0 C500 165 500 330 500 500 C335 500 170 500 0 500 C0 335 0 170 0 0 Z " fill="#FEFEFE" transform="translate(0,0)"/>
<path d="M0 0 C10.56 0 21.12 0 32 0 C31 4 31 4 29.0625 5.8125 C24.2021174 10.96745124 24.71396816 18.17309198 24.74462891 24.84399414 C24.74100845 25.80763885 24.737388 26.77128357 24.73365784 27.76412964 C24.72678704 29.84840514 24.72425404 31.93269855 24.72560501 34.01698494 C24.72657488 37.32739907 24.71357132 40.63749259 24.69662476 43.94786072 C24.65050631 53.35738623 24.62577442 62.76687896 24.61914062 72.17651367 C24.61409671 77.94246015 24.58969858 83.70807264 24.55381393 89.47390556 C24.54407991 91.65889916 24.54164863 93.84393907 24.54698563 96.02894783 C24.57488158 108.01642817 24.33916233 118.67001223 20 130 C19.72510239 130.72717728 19.45020477 131.45435455 19.16697693 132.2035675 C16.00062505 139.88761418 11.74119261 146.02598621 5.8203125 151.81640625 C3.75467599 154.29428352 3.24429625 155.80855533 3 159 C3.84979475 161.75256244 3.84979475 161.75256244 5 164 C4.01 164 3.02 164 2 164 C2 163.34 2 162.68 2 162 C0.35 162 -1.3 162 -3 162 C-3 162.66 -3 163.32 -3 164 C-3.66 164 -4.32 164 -5 164 C-5 163.01 -5 162.02 -5 161 C-5.3815625 161.47050781 -5.763125 161.94101562 -6.15625 162.42578125 C-11.92831584 167.35404933 -23.76630853 166.53353127 -31 166 C-31.99 165.67 -32.98 165.34 -34 165 C-34.51015537 160.66367933 -34.47135969 158.65158545 -31.875 155.0625 C-26.84374664 151.38256649 -19.8870434 152.51801984 -14 153 C-12.32843972 153.30785571 -10.66039223 153.6367005 -9 154 C-4.67102139 154.46381914 -2.78089553 154.58567165 0.75 151.9375 C5.271892 146.03391877 7.09662116 139.76019009 7.15821838 132.41252136 C7.1680072 131.52216187 7.17779602 130.63180237 7.18788147 129.71446228 C7.19363693 128.75061111 7.1993924 127.78675995 7.20532227 126.79370117 C7.21522186 125.76884613 7.22512146 124.74399109 7.23532104 123.68807983 C7.26686495 120.3063995 7.29166543 116.92470513 7.31640625 113.54296875 C7.33698191 111.19598529 7.35797854 108.8490055 7.37937927 106.50202942 C7.4345367 100.32893842 7.48397392 94.15581433 7.53222656 87.98266602 C7.58248778 81.68177347 7.63814973 75.38092891 7.69335938 69.08007812 C7.80086355 56.72009308 7.90232572 44.36006636 8 32 C6.42415181 31.66834756 4.84733214 31.34130928 3.27012634 31.01617432 C2.39214355 30.83355167 1.51416075 30.65092903 0.60957241 30.46277237 C-3.15044983 29.79598328 -6.81182178 29.71352186 -10.62109375 29.734375 C-11.39916885 29.73146454 -12.17724396 29.72855408 -12.97889709 29.72555542 C-15.46530466 29.72112092 -17.9511485 29.73349714 -20.4375 29.75 C-21.28892578 29.75376648 -22.14035156 29.75753296 -23.01757812 29.76141357 C-47.98685808 29.89136391 -79.67254118 30.6218803 -99.5 48.21875 C-102.61959148 51.69055342 -104.84011175 54.40111747 -105.3125 59.125 C-104.65249382 67.3090766 -100.0098692 72.58654634 -94.25 78.0625 C-93.6223877 78.67391846 -92.99477539 79.28533691 -92.34814453 79.9152832 C-88.68405308 83.46229437 -84.95530344 86.91789123 -81.0703125 90.22265625 C-78.25237789 92.64182653 -75.49859943 95.12758995 -72.75 97.625 C-72.24194824 98.08092529 -71.73389648 98.53685059 -71.21044922 99.0065918 C-68.14872544 101.79637617 -65.50152647 104.70036747 -63 108 C-59.41582693 106.60726027 -55.94610536 105.06349196 -52.48046875 103.3984375 C-51.45888672 102.90859375 -50.43730469 102.41875 -49.38476562 101.9140625 C-48.32966797 101.40617187 -47.27457031 100.89828125 -46.1875 100.375 C-44.57584961 99.6015625 -44.57584961 99.6015625 -42.93164062 98.8125 C-40.28706583 97.5431041 -37.64321516 96.27222395 -35 95 C-35 94.34 -35 93.68 -35 93 C-35.33 93.33 -35.66 93.66 -36 94 C-38.33297433 94.04092937 -40.66705225 94.04241723 -43 94 C-45 88.25 -45 88.25 -45 86 C-48.22250655 87.19352094 -49.22656168 88.29810748 -51.375 91.125 C-54 94 -54 94 -57.3125 94.375 C-58.6428125 94.189375 -58.6428125 94.189375 -60 94 C-60 93.34 -60 92.68 -60 92 C-60.721875 92.515625 -61.44375 93.03125 -62.1875 93.5625 C-65.4195366 95.21442982 -66.61608307 95.06351675 -70 94 C-69.52727227 89.74545047 -67.03562624 87.80795427 -64 85 C-63.67 84.67 -63.34 84.34 -63 84 C-61.00041636 83.95919217 -58.99954746 83.95745644 -57 84 C-57 84.66 -57 85.32 -57 86 C-57.928125 86.2475 -58.85625 86.495 -59.8125 86.75 C-63.16458325 88.06454245 -64.1877803 88.97963384 -66 92 C-65.236875 91.34 -64.47375 90.68 -63.6875 90 C-61 88 -61 88 -58 88 C-58 89.32 -58 90.64 -58 92 C-57.01 92 -56.02 92 -55 92 C-54.71125 91.236875 -54.4225 90.47375 -54.125 89.6875 C-53 87 -53 87 -51 84 C-48.8359375 83.70703125 -48.8359375 83.70703125 -46.375 83.8125 C-45.14910156 83.85310547 -45.14910156 83.85310547 -43.8984375 83.89453125 C-43.27195312 83.92933594 -42.64546875 83.96414062 -42 84 C-42 84.66 -42 85.32 -42 86 C-41.34 85.67 -40.68 85.34 -40 85 C-37.6670386 84.95833998 -35.3329614 84.95833998 -33 85 C-30.78918149 85.10540926 -30.78918149 85.10540926 -28 84 C-28.66 86.64 -29.32 89.28 -30 92 C-25.93184627 90.15083921 -22.9905167 88.33557632 -20 85 C-20 85.99 -20 86.98 -20 88 C-19.01 87.34 -18.02 86.68 -17 86 C-14.3125 85.875 -14.3125 85.875 -12 86 C-12.33 87.98 -12.66 89.96 -13 92 C-9.63279613 90.60667426 -8.0140476 89.0210714 -6 86 C-5.34 86.33 -4.68 86.66 -4 87 C-4.66 88.65 -5.32 90.3 -6 92 C-2.9168649 90.80100302 0.06279492 89.52299523 3 88 C1.98949988 90.66404576 1.02766415 91.97707828 -1.1875 93.8125 C-4.86099794 95.36353246 -7.13157564 94.75986907 -11 94 C-12.66628955 93.96454703 -14.33409803 93.94951812 -16 94 C-16 92.35 -16 90.7 -16 89 C-16.83144531 89.6496875 -16.83144531 89.6496875 -17.6796875 90.3125 C-18.40414062 90.869375 -19.12859375 91.42625 -19.875 92 C-20.59429687 92.556875 -21.31359375 93.11375 -22.0546875 93.6875 C-24 95 -24 95 -26 95 C-26.33 94.34 -26.66 93.68 -27 93 C-32.51450698 95.39761173 -33.85542573 99.13817447 -36.0625 104.375 C-41.10743191 116.08323801 -41.10743191 116.08323801 -45.9453125 119.2890625 C-50.35142361 120.81361045 -55.64301035 121.04387718 -59.94921875 119.13671875 C-61.78424269 117.91485051 -63.43929188 116.56070812 -65 115 C-67.46092152 114.83833362 -69.91147651 114.72155405 -72.375 114.625 C-80.82785149 114.19273046 -89.23963321 113.55094337 -96 108 C-95.66032174 104.82966958 -95.00130809 104.00117393 -92.5625 101.8125 C-89.26916875 99.48307058 -87.54264025 98.82842641 -83.5625 98.75 C-82.38880859 98.71132813 -82.38880859 98.71132813 -81.19140625 98.671875 C-78.52068491 99.07176911 -77.68022561 99.94699122 -76 102 C-76.83144531 101.97679687 -77.66289062 101.95359375 -78.51953125 101.9296875 C-79.60621094 101.91164063 -80.69289062 101.89359375 -81.8125 101.875 C-82.89144531 101.85179687 -83.97039062 101.82859375 -85.08203125 101.8046875 C-88.19402868 101.76976283 -88.19402868 101.76976283 -91 104 C-91 105.32 -91 106.64 -91 108 C-82.86222087 110.73977333 -75.55937129 111.36741339 -67 111 C-68.47746349 105.96914332 -71.45391552 103.159123 -75.125 99.625 C-75.71466553 99.0470166 -76.30433105 98.4690332 -76.91186523 97.87353516 C-81.1423346 93.75392045 -85.51620649 89.84086595 -90 86 C-107.95674908 70.4517923 -107.95674908 70.4517923 -109.4375 59.875 C-108.71775271 53.50009539 -105.55119618 49.22617468 -100.76171875 45.046875 C-78.53021309 28.73667946 -49.54260064 26.74707078 -22.9375 26.6875 C-21.74935196 26.68198624 -21.74935196 26.68198624 -20.53720093 26.67636108 C-10.81803476 26.65280726 -1.57102518 27.15547921 8 29 C7.68979759 17.13304614 7.68979759 17.13304614 4 6 C1.95053601 4.14684743 1.95053601 4.14684743 0 3 C0 2.01 0 1.02 0 0 Z " fill="#FEDFE8" transform="translate(284,164)"/>
<path d="M0 0 C1.70639648 0.01027222 1.70639648 0.01027222 3.44726562 0.02075195 C16.64706368 0.27091848 27.71281082 2.91267484 39.3125 9.4375 C39.3125 15.3775 39.3125 21.3175 39.3125 27.4375 C42.2825 27.4375 45.2525 27.4375 48.3125 27.4375 C48.3125 27.7675 48.3125 28.0975 48.3125 28.4375 C47.64009277 28.45208252 46.96768555 28.46666504 46.27490234 28.48168945 C-0.030683 29.17170866 -0.030683 29.17170866 -39.6875 50.4375 C-41.20372442 52.71901119 -42.43924992 54.98900946 -43.6875 57.4375 C-48.22175938 53.34777585 -49.38499252 48.28971334 -50.015625 42.34375 C-50.35903155 32.04155342 -47.94141789 23.27302977 -41.3828125 15.21484375 C-30.29685827 3.59247238 -15.62237627 -0.1450384 0 0 Z " fill="#FEFDFD" transform="translate(219.6875,162.5625)"/>
<path d="M0 0 C0.66 0.33 1.32 0.66 2 1 C2 1.99 2 2.98 2 4 C11.76179317 12.64232147 26.09710625 17.03793432 37.90625 22.10546875 C46.43297451 25.78991036 54.35171315 29.65053661 62 35 C63.485 35.99 63.485 35.99 65 37 C65.66 36.01 66.32 35.02 67 34 C67.66 34 68.32 34 69 34 C68.5875 34.86625 68.175 35.7325 67.75 36.625 C66.58057235 40.12444557 66.58057235 40.12444557 68.875 43.375 C69.57625 44.24125 70.2775 45.1075 71 46 C66.25 49 66.25 49 64 49 C64.875 43.25 64.875 43.25 66 41 C64.68 41.99 63.36 42.98 62 44 C61.67 43.67 61.34 43.34 61 43 C59.48071962 42.92820036 57.95832518 42.91607993 56.4375 42.9375 C55.61121094 42.94652344 54.78492188 42.95554688 53.93359375 42.96484375 C53.29550781 42.97644531 52.65742188 42.98804688 52 43 C52 42.34 52 41.68 52 41 C48.86869093 40.95316418 46.00826443 41.08871852 43 42 C40.96119166 44.22610045 40.1862622 46.16328604 39 49 C38.01 49 37.02 49 36 49 C36 47.68 36 46.36 36 45 C35.236875 45.474375 34.47375 45.94875 33.6875 46.4375 C31 48 31 48 28 49 C29.15173355 46.53199953 30.04783565 44.95216435 32 43 C34.625 42.875 34.625 42.875 37 43 C37 42.34 37 41.68 37 41 C31.54574251 42.17640848 28.62805112 43.49242134 25 48 C25 48.99 25 49.98 25 51 C28.12290635 50.51421457 30.99580359 50.0013988 34 49 C34 49.66 34 50.32 34 51 C39.56360701 49.82308313 41.64860487 48.50704863 45 44 C47.25 43.1875 47.25 43.1875 49 43 C49 43.66 49 44.32 49 45 C49.99 45.495 49.99 45.495 51 46 C51 47.32 51 48.64 51 50 C56.32170494 50.29562367 56.32170494 50.29562367 61 48 C60.06561072 51.28987247 59.41384696 52.7190197 56.54150391 54.66918945 C55.53007324 55.14573975 54.51864258 55.62229004 53.4765625 56.11328125 C52.373125 56.63857422 51.2696875 57.16386719 50.1328125 57.70507812 C48.39644531 58.50075195 48.39644531 58.50075195 46.625 59.3125 C45.47515625 59.86228516 44.3253125 60.41207031 43.140625 60.97851562 C34.56811918 65 34.56811918 65 30 65 C28.0625 63.19921875 28.0625 63.19921875 26 60.6875 C22.50596573 56.62359853 18.90311334 52.90257468 14.9375 49.3125 C14.42340576 48.84690674 13.90931152 48.38131348 13.37963867 47.90161133 C10.55260188 45.35913009 7.69149723 42.85827849 4.8125 40.375 C-11.11086779 26.44620856 -11.11086779 26.44620856 -12.5 16.375 C-11.37211509 8.76177686 -5.63894133 4.62612177 0 0 Z " fill="#FBDDE6" transform="translate(190,207)"/>
<path d="M0 0 C1.19455307 -0.00551376 1.19455307 -0.00551376 2.41323853 -0.01113892 C26.44132214 -0.06906329 26.44132214 -0.06906329 35.5 4.6875 C36.29664063 5.08710938 37.09328125 5.48671875 37.9140625 5.8984375 C40.12346185 7.4916697 40.88324858 8.80646145 41.875 11.3125 C41.30265625 11.02375 40.7303125 10.735 40.140625 10.4375 C37.98096882 9.365119 35.81522687 8.32094978 33.625 7.3125 C32.91859375 6.9825 32.2121875 6.6525 31.484375 6.3125 C25.09382748 3.8634279 19.22588613 3.01030226 12.44921875 3.046875 C11.66831375 3.04396454 10.88740875 3.04105408 10.08283997 3.03805542 C7.57585699 3.03360415 5.0694278 3.04602912 2.5625 3.0625 C1.27786865 3.06814972 1.27786865 3.06814972 -0.03271484 3.07391357 C-25.03416312 3.20342136 -56.76760934 3.90781578 -76.625 21.53125 C-79.74459148 25.00305342 -81.96511175 27.71361747 -82.4375 32.4375 C-81.77749382 40.6215766 -77.1348692 45.89904634 -71.375 51.375 C-70.7473877 51.98641846 -70.11977539 52.59783691 -69.47314453 53.2277832 C-65.80905308 56.77479437 -62.08030344 60.23039123 -58.1953125 63.53515625 C-55.37737789 65.95432653 -52.62359943 68.44008995 -49.875 70.9375 C-49.36694824 71.39342529 -48.85889648 71.84935059 -48.33544922 72.3190918 C-45.27372544 75.10887617 -42.62652647 78.01286747 -40.125 81.3125 C-36.54082693 79.91976027 -33.07110536 78.37599196 -29.60546875 76.7109375 C-28.58388672 76.22109375 -27.56230469 75.73125 -26.50976562 75.2265625 C-25.45466797 74.71867187 -24.39957031 74.21078125 -23.3125 73.6875 C-21.70084961 72.9140625 -21.70084961 72.9140625 -20.05664062 72.125 C-17.41206583 70.8556041 -14.76821516 69.58472395 -12.125 68.3125 C-12.125 67.6525 -12.125 66.9925 -12.125 66.3125 C-12.455 66.6425 -12.785 66.9725 -13.125 67.3125 C-15.45797433 67.35342937 -17.79205225 67.35491723 -20.125 67.3125 C-22.125 61.5625 -22.125 61.5625 -22.125 59.3125 C-25.34750655 60.50602094 -26.35156168 61.61060748 -28.5 64.4375 C-31.125 67.3125 -31.125 67.3125 -34.4375 67.6875 C-35.7678125 67.501875 -35.7678125 67.501875 -37.125 67.3125 C-37.125 66.6525 -37.125 65.9925 -37.125 65.3125 C-37.846875 65.828125 -38.56875 66.34375 -39.3125 66.875 C-42.5445366 68.52692982 -43.74108307 68.37601675 -47.125 67.3125 C-46.65227227 63.05795047 -44.16062624 61.12045427 -41.125 58.3125 C-40.795 57.9825 -40.465 57.6525 -40.125 57.3125 C-38.12541636 57.27169217 -36.12454746 57.26995644 -34.125 57.3125 C-34.125 57.9725 -34.125 58.6325 -34.125 59.3125 C-35.053125 59.56 -35.98125 59.8075 -36.9375 60.0625 C-40.28958325 61.37704245 -41.3127803 62.29213384 -43.125 65.3125 C-42.361875 64.6525 -41.59875 63.9925 -40.8125 63.3125 C-38.125 61.3125 -38.125 61.3125 -35.125 61.3125 C-35.125 62.6325 -35.125 63.9525 -35.125 65.3125 C-34.135 65.3125 -33.145 65.3125 -32.125 65.3125 C-31.83625 64.549375 -31.5475 63.78625 -31.25 63 C-30.125 60.3125 -30.125 60.3125 -28.125 57.3125 C-25.9609375 57.01953125 -25.9609375 57.01953125 -23.5 57.125 C-22.27410156 57.16560547 -22.27410156 57.16560547 -21.0234375 57.20703125 C-20.39695312 57.24183594 -19.77046875 57.27664062 -19.125 57.3125 C-19.125 57.9725 -19.125 58.6325 -19.125 59.3125 C-18.465 58.9825 -17.805 58.6525 -17.125 58.3125 C-14.7920386 58.27083998 -12.4579614 58.27083998 -10.125 58.3125 C-7.91418149 58.41790926 -7.91418149 58.41790926 -5.125 57.3125 C-5.785 59.9525 -6.445 62.5925 -7.125 65.3125 C-3.05684627 63.46333921 -0.1155167 61.64807632 2.875 58.3125 C2.875 59.3025 2.875 60.2925 2.875 61.3125 C3.865 60.6525 4.855 59.9925 5.875 59.3125 C8.5625 59.1875 8.5625 59.1875 10.875 59.3125 C10.545 61.2925 10.215 63.2725 9.875 65.3125 C13.24220387 63.91917426 14.8609524 62.3335714 16.875 59.3125 C17.535 59.6425 18.195 59.9725 18.875 60.3125 C18.215 61.9625 17.555 63.6125 16.875 65.3125 C19.9581351 64.11350302 22.93779492 62.83549523 25.875 61.3125 C24.86449988 63.97654576 23.90266415 65.28957828 21.6875 67.125 C18.01400206 68.67603246 15.74342436 68.07236907 11.875 67.3125 C10.20871045 67.27704703 8.54090197 67.26201812 6.875 67.3125 C6.875 65.6625 6.875 64.0125 6.875 62.3125 C6.32070313 62.745625 5.76640625 63.17875 5.1953125 63.625 C4.47085938 64.181875 3.74640625 64.73875 3 65.3125 C2.28070313 65.869375 1.56140625 66.42625 0.8203125 67 C-1.125 68.3125 -1.125 68.3125 -3.125 68.3125 C-3.455 67.6525 -3.785 66.9925 -4.125 66.3125 C-9.63950698 68.71011173 -10.98042573 72.45067447 -13.1875 77.6875 C-18.23243191 89.39573801 -18.23243191 89.39573801 -23.0703125 92.6015625 C-27.47642361 94.12611045 -32.76801035 94.35637718 -37.07421875 92.44921875 C-38.90924269 91.22735051 -40.56429188 89.87320812 -42.125 88.3125 C-44.58592152 88.15083362 -47.03647651 88.03405405 -49.5 87.9375 C-57.95285149 87.50523046 -66.36463321 86.86344337 -73.125 81.3125 C-72.78532174 78.14216958 -72.12630809 77.31367393 -69.6875 75.125 C-66.39416875 72.79557058 -64.66764025 72.14092641 -60.6875 72.0625 C-59.51380859 72.02382813 -59.51380859 72.02382813 -58.31640625 71.984375 C-55.64568491 72.38426911 -54.80522561 73.25949122 -53.125 75.3125 C-53.95644531 75.28929687 -54.78789062 75.26609375 -55.64453125 75.2421875 C-56.73121094 75.22414063 -57.81789062 75.20609375 -58.9375 75.1875 C-60.01644531 75.16429687 -61.09539062 75.14109375 -62.20703125 75.1171875 C-65.31902868 75.08226283 -65.31902868 75.08226283 -68.125 77.3125 C-68.125 78.6325 -68.125 79.9525 -68.125 81.3125 C-59.98722087 84.05227333 -52.68437129 84.67991339 -44.125 84.3125 C-45.60246349 79.28164332 -48.57891552 76.471623 -52.25 72.9375 C-52.83966553 72.3595166 -53.42933105 71.7815332 -54.03686523 71.18603516 C-58.2673346 67.06642045 -62.64120649 63.15336595 -67.125 59.3125 C-85.08174908 43.7642923 -85.08174908 43.7642923 -86.5625 33.1875 C-85.84275271 26.81259539 -82.67619618 22.53867468 -77.88671875 18.359375 C-55.63582915 2.03495839 -26.62593301 0.05943509 0 0 Z " fill="#232222" transform="translate(261.125,190.6875)"/>
<path d="M0 0 C0.99 0.495 0.99 0.495 2 1 C1.82984375 1.5053125 1.6596875 2.010625 1.484375 2.53125 C0.95646548 5.22188561 1.04315017 7.70254389 1.16772461 10.43164062 C1.5796151 20.78634744 -0.55340366 29.03070509 -7.125 37.3125 C-17.68994719 48.33579631 -31.35183659 52.91309044 -46.23974609 53.29223633 C-60.54206183 53.42410616 -74.19023141 50.57413715 -87 44 C-87.69270996 43.74565186 -88.38541992 43.49130371 -89.09912109 43.22924805 C-91.66157195 42.0754373 -93.17559467 41.15546762 -95 39 C-96.01191283 34.20491748 -95.75252064 29.56066274 -95.5 24.6875 C-95.46390625 23.37458984 -95.4278125 22.06167969 -95.390625 20.70898438 C-95.29639122 17.46969813 -95.16494088 14.23633038 -95 11 C-92 12 -92 12 -90.4921875 14.80859375 C-89.95851562 16.00613281 -89.42484375 17.20367187 -88.875 18.4375 C-85.60954382 25.37925066 -81.52494526 30.63376053 -76 36 C-75.43667969 36.58394531 -74.87335938 37.16789062 -74.29296875 37.76953125 C-64.79905901 46.8938484 -52.10412305 48.47647871 -39.57421875 48.28125 C-32.30959252 47.98284679 -26.72243541 45.714126 -20.625 41.875 C-14.74999826 35.44047428 -12.32163503 29.17195588 -12.67578125 20.46484375 C-12.92314675 17.81997903 -12.92314675 17.81997903 -14.25 14.8125 C-15.26908693 10.99092402 -14.18367502 9.13285037 -12.28515625 5.7734375 C-10.52590042 3.3457714 -8.77828249 2.09669046 -6 1 C-5.01 1.495 -5.01 1.495 -4 2 C-4.33 2.66 -4.66 3.32 -5 4 C-3.35 2.68 -1.7 1.36 0 0 Z " fill="#FEE0E8" transform="translate(263,255)"/>
<path d="M0 0 C1.70639648 0.01027222 1.70639648 0.01027222 3.44726562 0.02075195 C16.64706368 0.27091848 27.71281082 2.91267484 39.3125 9.4375 C39.3125 15.3775 39.3125 21.3175 39.3125 27.4375 C42.2825 27.4375 45.2525 27.4375 48.3125 27.4375 C48.3125 27.7675 48.3125 28.0975 48.3125 28.4375 C43.8116744 29.11674045 39.78930101 29.36586887 35.3125 28.4375 C32.69622691 25.96169794 31.07860812 23.40127278 29.19921875 20.3359375 C24.14726991 12.57497262 15.4979717 8.07016598 6.72265625 5.75390625 C-6.03156523 3.10058901 -15.54516401 4.13588853 -27 10.1875 C-31.42929631 13.89574807 -34.65842142 18.68739081 -35.6875 24.4375 C-36.16687074 31.05650363 -36.45667504 36.70835394 -32.6875 42.4375 C-32.3575 43.0975 -32.0275 43.7575 -31.6875 44.4375 C-32.21859375 44.78941406 -32.7496875 45.14132813 -33.296875 45.50390625 C-38.28766828 48.99199717 -41.05116763 51.9451409 -43.6875 57.4375 C-48.22175938 53.34777585 -49.38499252 48.28971334 -50.015625 42.34375 C-50.35903155 32.04155342 -47.94141789 23.27302977 -41.3828125 15.21484375 C-30.29685827 3.59247238 -15.62237627 -0.1450384 0 0 Z " fill="#FDDFE8" transform="translate(219.6875,162.5625)"/>
<path d="M0 0 C3.14929573 1.47944081 5.92441818 3.27049257 8.80078125 5.22265625 C15.5637967 9.56074881 22.75906557 12.4832709 30.1875 15.4375 C31.53490831 15.98272883 32.88191646 16.52894766 34.22851562 17.07617188 C37.48116173 18.395515 40.7389539 19.70153459 44 21 C44 21.66 44 22.32 44 23 C42.00669158 24.34331654 40.00615134 25.67594012 38 27 C35.7226499 29.81509993 35.7226499 29.81509993 36 33 C39.12290635 32.51421457 41.99580359 32.0013988 45 31 C45 31.66 45 32.32 45 33 C50.56360701 31.82308313 52.64860487 30.50704863 56 26 C58.25 25.1875 58.25 25.1875 60 25 C60 25.66 60 26.32 60 27 C60.66 27.33 61.32 27.66 62 28 C62 29.32 62 30.64 62 32 C67.32170494 32.29562367 67.32170494 32.29562367 72 30 C71.06561072 33.28987247 70.41384696 34.7190197 67.54150391 36.66918945 C66.53007324 37.14573975 65.51864258 37.62229004 64.4765625 38.11328125 C63.373125 38.63857422 62.2696875 39.16386719 61.1328125 39.70507812 C59.39644531 40.50075195 59.39644531 40.50075195 57.625 41.3125 C56.47515625 41.86228516 55.3253125 42.41207031 54.140625 42.97851562 C45.56811918 47 45.56811918 47 41 47 C39.0625 45.19921875 39.0625 45.19921875 37 42.6875 C33.50596573 38.62359853 29.90311334 34.90257468 25.9375 31.3125 C25.42340576 30.84690674 24.90931152 30.38131348 24.37963867 29.90161133 C21.55260188 27.35913009 18.69149723 24.85827849 15.8125 22.375 C2.29677338 10.58408368 2.29677338 10.58408368 0 4 C0 2.68 0 1.36 0 0 Z " fill="#FBFAFB" transform="translate(179,225)"/>
<path d="M0 0 C1.4540625 0.0309375 1.4540625 0.0309375 2.9375 0.0625 C2.9375 0.7225 2.9375 1.3825 2.9375 2.0625 C2.009375 2.31 1.08125 2.5575 0.125 2.8125 C-3.22708325 4.12704245 -4.2502803 5.04213384 -6.0625 8.0625 C-5.299375 7.4025 -4.53625 6.7425 -3.75 6.0625 C-1.0625 4.0625 -1.0625 4.0625 1.9375 4.0625 C1.9375 5.3825 1.9375 6.7025 1.9375 8.0625 C2.9275 8.0625 3.9175 8.0625 4.9375 8.0625 C5.22625 7.299375 5.515 6.53625 5.8125 5.75 C6.9375 3.0625 6.9375 3.0625 8.9375 0.0625 C11.1015625 -0.23046875 11.1015625 -0.23046875 13.5625 -0.125 C14.37976563 -0.09792969 15.19703125 -0.07085937 16.0390625 -0.04296875 C16.97878906 0.00923828 16.97878906 0.00923828 17.9375 0.0625 C17.9375 0.7225 17.9375 1.3825 17.9375 2.0625 C18.5975 1.7325 19.2575 1.4025 19.9375 1.0625 C22.2704614 1.02083998 24.6045386 1.02083998 26.9375 1.0625 C29.14831851 1.16790926 29.14831851 1.16790926 31.9375 0.0625 C31.2775 2.7025 30.6175 5.3425 29.9375 8.0625 C34.00565373 6.21333921 36.9469833 4.39807632 39.9375 1.0625 C39.9375 2.0525 39.9375 3.0425 39.9375 4.0625 C40.9275 3.4025 41.9175 2.7425 42.9375 2.0625 C45.625 1.9375 45.625 1.9375 47.9375 2.0625 C47.6075 4.0425 47.2775 6.0225 46.9375 8.0625 C50.30470387 6.66917426 51.9234524 5.0835714 53.9375 2.0625 C54.9275 2.5575 54.9275 2.5575 55.9375 3.0625 C55.2775 4.7125 54.6175 6.3625 53.9375 8.0625 C57.0206351 6.86350302 60.00029492 5.58549523 62.9375 4.0625 C61.92699988 6.72654576 60.96516415 8.03957828 58.75 9.875 C55.07650206 11.42603246 52.80592436 10.82236907 48.9375 10.0625 C47.27121045 10.02704703 45.60340197 10.01201812 43.9375 10.0625 C43.9375 8.4125 43.9375 6.7625 43.9375 5.0625 C43.38320313 5.495625 42.82890625 5.92875 42.2578125 6.375 C41.53335938 6.931875 40.80890625 7.48875 40.0625 8.0625 C39.34320313 8.619375 38.62390625 9.17625 37.8828125 9.75 C35.9375 11.0625 35.9375 11.0625 33.9375 11.0625 C33.4425 10.0725 33.4425 10.0725 32.9375 9.0625 C28.81967726 11.17705762 27.26663875 13.14531211 24.9375 17.0625 C23.9475 17.0625 22.9575 17.0625 21.9375 17.0625 C21.710625 17.866875 21.48375 18.67125 21.25 19.5 C19.1843129 25.10686499 16.99987756 30.68758163 11.9375 34.0625 C6.96132431 34.78784086 3.09430255 34.80285363 -1.1875 32.0625 C-1.80625 31.4025 -2.425 30.7425 -3.0625 30.0625 C-1.65307375 26.55750389 -0.2564673 25.27374964 3.078125 23.5546875 C3.90183594 23.12542969 4.72554687 22.69617188 5.57421875 22.25390625 C6.43660156 21.81949219 7.29898438 21.38507813 8.1875 20.9375 C9.03441406 20.49535156 9.88132813 20.05320312 10.75390625 19.59765625 C15.06796674 17.37688794 19.26005635 15.42293296 23.9375 14.0625 C23.2775 13.7325 22.6175 13.4025 21.9375 13.0625 C23.2575 11.7425 24.5775 10.4225 25.9375 9.0625 C25.2775 9.3925 24.6175 9.7225 23.9375 10.0625 C21.6045134 10.10272391 19.27043334 10.10570247 16.9375 10.0625 C14.9375 4.3125 14.9375 4.3125 14.9375 2.0625 C11.71499345 3.25602094 10.71093832 4.36060748 8.5625 7.1875 C5.9375 10.0625 5.9375 10.0625 2.625 10.4375 C1.738125 10.31375 0.85125 10.19 -0.0625 10.0625 C-0.0625 9.4025 -0.0625 8.7425 -0.0625 8.0625 C-1.1453125 8.8359375 -1.1453125 8.8359375 -2.25 9.625 C-5.4820366 11.27692982 -6.67858307 11.12601675 -10.0625 10.0625 C-9.58977227 5.80795047 -7.09812624 3.87045427 -4.0625 1.0625 C-3.0625 0.0625 -3.0625 0.0625 0 0 Z " fill="#1C1B1C" transform="translate(224.0625,247.9375)"/>
<path d="M0 0 C0.67466309 0.02416992 1.34932617 0.04833984 2.04443359 0.07324219 C6.5175895 0.23644191 10.72236466 0.56696533 15 2 C17.3887699 4.78604933 18.34356008 7.41539548 19 11 C18.01 11 17.02 11 16 11 C16 10.34 16 9.68 16 9 C14.35 9 12.7 9 11 9 C11 9.66 11 10.32 11 11 C10.34 11 9.68 11 9 11 C9 10.01 9 9.02 9 8 C8.6184375 8.47050781 8.236875 8.94101562 7.84375 9.42578125 C2.07168416 14.35404933 -9.76630853 13.53353127 -17 13 C-17.99 12.67 -18.98 12.34 -20 12 C-20.51015537 7.66367933 -20.47135969 5.65158545 -17.875 2.0625 C-12.68380093 -1.63334196 -6.01766147 -0.42335307 0 0 Z " fill="#F4D6DF" transform="translate(270,317)"/>
<path d="M0 0 C-1.82757129 6.76201378 -5.05821617 15.03881078 -11 19 C-15.97617569 19.72534086 -19.84319745 19.74035363 -24.125 17 C-24.74375 16.34 -25.3625 15.68 -26 15 C-24.57861482 11.42711146 -23.12047385 10.18094489 -19.71875 8.45703125 C-18.87699219 8.02326172 -18.03523437 7.58949219 -17.16796875 7.14257812 C-16.28753906 6.70365234 -15.40710938 6.26472656 -14.5 5.8125 C-13.61957031 5.36197266 -12.73914063 4.91144531 -11.83203125 4.44726562 C-9.56010214 3.28694655 -7.28254237 2.13925988 -5 1 C-3 0 -3 0 0 0 Z " fill="#F6F6F6" transform="translate(247,263)"/>
<path d="M0 0 C2.45948611 -0.00218643 4.9185225 -0.02039946 7.37792969 -0.03930664 C29.80458264 -0.12191879 29.80458264 -0.12191879 38.72167969 4.56030273 C39.51832031 4.95991211 40.31496094 5.35952148 41.13574219 5.77124023 C43.34514154 7.36447244 44.10492826 8.67926419 45.09667969 11.18530273 C44.52433594 10.89655273 43.95199219 10.60780273 43.36230469 10.31030273 C41.20264851 9.23792174 39.03690656 8.19375252 36.84667969 7.18530273 C36.14027344 6.85530273 35.43386719 6.52530273 34.70605469 6.18530273 C28.31550717 3.73623063 22.44756581 2.88310499 15.67089844 2.91967773 C14.88999344 2.91676727 14.10908844 2.91385681 13.30451965 2.91085815 C10.79753667 2.90640688 8.29110748 2.91883185 5.78417969 2.93530273 C4.49954834 2.94095245 4.49954834 2.94095245 3.18896484 2.94671631 C-16.50627931 3.04873789 -33.78545709 4.88212578 -52.73120117 10.55273438 C-53.80640015 10.86585571 -53.80640015 10.86585571 -54.90332031 11.18530273 C-55.61560791 11.41918701 -56.32789551 11.65307129 -57.06176758 11.89404297 C-57.66947998 11.99015869 -58.27719238 12.08627441 -58.90332031 12.18530273 C-59.56332031 11.52530273 -60.22332031 10.86530273 -60.90332031 10.18530273 C-52.56732003 7.10350869 -44.30798064 4.6721682 -35.59082031 2.93530273 C-34.37507324 2.69118652 -34.37507324 2.69118652 -33.13476562 2.44213867 C-22.08271849 0.33036821 -11.21965147 -0.00111439 0 0 Z " fill="#242424" transform="translate(257.9033203125,190.814697265625)"/>
<path d="M0 0 C-0.86882812 0.49628906 -1.73765625 0.99257812 -2.6328125 1.50390625 C-12.93919992 7.52569229 -12.93919992 7.52569229 -20 17 C-20.61014485 23.10144848 -19.15319873 26.93640001 -16 32 C-13.91716261 34.54042281 -11.62898324 36.8006516 -9.25 39.0625 C-8.63108887 39.66594238 -8.01217773 40.26938477 -7.37451172 40.89111328 C-3.05104132 45.07887444 1.35803761 49.16533541 6 53 C4.515 53.495 4.515 53.495 3 54 C1.37890625 52.953125 1.37890625 52.953125 -0.4375 51.25 C-1.48357422 50.27933594 -1.48357422 50.27933594 -2.55078125 49.2890625 C-3.35902344 48.53367188 -4.16726562 47.77828125 -5 47 C-5.98355469 46.14148438 -6.96710938 45.28296875 -7.98046875 44.3984375 C-15.42207274 37.87600855 -22.99911439 31.14918296 -24.4375 20.875 C-23.70734106 14.40787795 -20.48385483 10.05816272 -15.515625 5.94140625 C-13.05606067 4.19133163 -10.59304045 2.54469901 -8 1 C-7.32195312 0.58621094 -6.64390625 0.17242187 -5.9453125 -0.25390625 C-3.56221341 -1.1679061 -2.36498668 -0.8446381 0 0 Z " fill="#1C1B1B" transform="translate(199,203)"/>
<path d="M0 0 C1.4540625 0.0309375 1.4540625 0.0309375 2.9375 0.0625 C2.9375 0.7225 2.9375 1.3825 2.9375 2.0625 C2.009375 2.31 1.08125 2.5575 0.125 2.8125 C-3.22708325 4.12704245 -4.2502803 5.04213384 -6.0625 8.0625 C-5.299375 7.4025 -4.53625 6.7425 -3.75 6.0625 C-1.0625 4.0625 -1.0625 4.0625 1.9375 4.0625 C1.9375 5.3825 1.9375 6.7025 1.9375 8.0625 C2.9275 8.0625 3.9175 8.0625 4.9375 8.0625 C5.22625 7.299375 5.515 6.53625 5.8125 5.75 C6.9375 3.0625 6.9375 3.0625 8.9375 0.0625 C11.1015625 -0.23046875 11.1015625 -0.23046875 13.5625 -0.125 C14.37976563 -0.09792969 15.19703125 -0.07085937 16.0390625 -0.04296875 C16.97878906 0.00923828 16.97878906 0.00923828 17.9375 0.0625 C17.9375 0.7225 17.9375 1.3825 17.9375 2.0625 C18.5975 1.7325 19.2575 1.4025 19.9375 1.0625 C22.2704866 1.02227609 24.60456666 1.01929753 26.9375 1.0625 C24.81202471 7.11192966 24.81202471 7.11192966 21.9375 9.0625 C18.75 9.25 18.75 9.25 15.9375 9.0625 C15.6075 6.7525 15.2775 4.4425 14.9375 2.0625 C11.71499345 3.25602094 10.71093832 4.36060748 8.5625 7.1875 C5.9375 10.0625 5.9375 10.0625 2.625 10.4375 C1.738125 10.31375 0.85125 10.19 -0.0625 10.0625 C-0.0625 9.4025 -0.0625 8.7425 -0.0625 8.0625 C-1.1453125 8.8359375 -1.1453125 8.8359375 -2.25 9.625 C-5.4820366 11.27692982 -6.67858307 11.12601675 -10.0625 10.0625 C-9.58977227 5.80795047 -7.09812624 3.87045427 -4.0625 1.0625 C-3.0625 0.0625 -3.0625 0.0625 0 0 Z " fill="#161616" transform="translate(224.0625,247.9375)"/>
<path d="M0 0 C5.28 0.33 10.56 0.66 16 1 C17.32 3.97 18.64 6.94 20 10 C19.01 10 18.02 10 17 10 C17 9.34 17 8.68 17 8 C15.35 8 13.7 8 12 8 C12 8.66 12 9.32 12 10 C11.34 10 10.68 10 10 10 C10 9.01 10 8.02 10 7 C9.01 7.495 9.01 7.495 8 8 C6.00039988 8.039992 3.99952758 8.04346799 2 8 C2 5.69 2 3.38 2 1 C1.34 0.67 0.68 0.34 0 0 Z " fill="#FADDE5" transform="translate(269,318)"/>
<path d="M0 0 C1.2578125 2.1640625 1.2578125 2.1640625 2 4 C1.42765625 3.71125 0.8553125 3.4225 0.265625 3.125 C-1.89403118 2.052619 -4.05977313 1.00844978 -6.25 0 C-6.95640625 -0.33 -7.6628125 -0.66 -8.390625 -1 C-16.71526437 -4.19028096 -24.65370719 -4.40923676 -33.5 -4.625 C-34.799375 -4.66367188 -36.09875 -4.70234375 -37.4375 -4.7421875 C-40.62486286 -4.83593347 -43.8122279 -4.92164349 -47 -5 C-47 -5.33 -47 -5.66 -47 -6 C-11.13152453 -8.64723579 -11.13152453 -8.64723579 0 0 Z " fill="#696868" transform="translate(301,198)"/>
<path d="M0 0 C1.65 0 3.3 0 5 0 C5 0.66 5 1.32 5 2 C5.66 1.67 6.32 1.34 7 1 C9.3329866 0.95977609 11.66706666 0.95679753 14 1 C11.87452471 7.04942966 11.87452471 7.04942966 9 9 C5.8125 9.1875 5.8125 9.1875 3 9 C2.87625 8.2575 2.7525 7.515 2.625 6.75 C2.04513299 4.19858515 1.26291261 2.2732427 0 0 Z " fill="#342E30" transform="translate(237,248)"/>
<path d="M0 0 C0.66 0.33 1.32 0.66 2 1 C1.34 2.65 0.68 4.3 0 6 C3.0831351 4.80100302 6.06279492 3.52299523 9 2 C7.98949988 4.66404576 7.02766415 5.97707828 4.8125 7.8125 C1.13900206 9.36353246 -1.13157564 8.75986907 -5 8 C-6.66628955 7.96454703 -8.33409803 7.94951812 -10 8 C-9.67 7.01 -9.34 6.02 -9 5 C-8.071875 4.9175 -7.14375 4.835 -6.1875 4.75 C-2.91490121 4.29742448 -2.91490121 4.29742448 -1.125 1.9375 C-0.75375 1.298125 -0.3825 0.65875 0 0 Z " fill="#171717" transform="translate(278,250)"/>
<path d="M0 0 C0.99 0 1.98 0 3 0 C4.6875 2 4.6875 2 6 4 C6.45375 3.34 6.9075 2.68 7.375 2 C7.91125 1.34 8.4475 0.68 9 0 C9.66 0 10.32 0 11 0 C11 2.97 11 5.94 11 9 C10.34 9 9.68 9 9 9 C8.67 7.68 8.34 6.36 8 5 C7.01 5.99 6.02 6.98 5 8 C4.34 7.01 3.68 6.02 3 5 C2.67 6.32 2.34 7.64 2 9 C1.34 9 0.68 9 0 9 C0 6.03 0 3.06 0 0 Z " fill="#171717" transform="translate(174,319)"/>
<path d="M0 0 C0 0.66 0 1.32 0 2 C-0.928125 2.2475 -1.85625 2.495 -2.8125 2.75 C-6.16458325 4.06454245 -7.1877803 4.97963384 -9 8 C-7.68 7.67 -6.36 7.34 -5 7 C-5.33 7.99 -5.66 8.98 -6 10 C-7.98 10.33 -9.96 10.66 -12 11 C-12.75 9.3125 -12.75 9.3125 -13 7 C-9.35049051 1.52573576 -6.55919004 -0.29151956 0 0 Z " fill="#292929" transform="translate(227,248)"/>
<path d="M0 0 C1.98 0 3.96 0 6 0 C6.144375 0.7425 6.28875 1.485 6.4375 2.25 C6.90187492 4.52027739 7.41863569 6.75759479 8 9 C7.01 9 6.02 9 5 9 C5 8.34 5 7.68 5 7 C4.01 7 3.02 7 2 7 C2 7.66 2 8.32 2 9 C1.34 9 0.68 9 0 9 C0 6.03 0 3.06 0 0 Z " fill="#414141" transform="translate(203,319)"/>
<path d="M0 0 C2.31 0 4.62 0 7 0 C7.38218767 1.65614657 7.71395102 3.32457024 8 5 C7 6 7 6 4.4375 6.0625 C3.2309375 6.0315625 3.2309375 6.0315625 2 6 C2 6.99 2 7.98 2 9 C1.34 9 0.68 9 0 9 C0 6.03 0 3.06 0 0 Z " fill="#483F41" transform="translate(256,319)"/>
<path d="M0 0 C0.99 0 1.98 0 3 0 C4.32 2.97 5.64 5.94 7 9 C6.01 9 5.02 9 4 9 C4 8.34 4 7.68 4 7 C2.35 7 0.7 7 -1 7 C-1 7.66 -1 8.32 -1 9 C-1.66 9 -2.32 9 -3 9 C-2.44271087 5.65626525 -1.64826111 2.96687001 0 0 Z " fill="#181818" transform="translate(282,319)"/>
<path d="M0 0 C1.32 0.33 2.64 0.66 4 1 C5.046875 2.84765625 5.046875 2.84765625 5.75 5.0625 C5.99234375 5.79597656 6.2346875 6.52945312 6.484375 7.28515625 C6.65453125 7.85105469 6.8246875 8.41695313 7 9 C4.36 8.34 1.72 7.68 -1 7 C-1 7.66 -1 8.32 -1 9 C-1.66 9 -2.32 9 -3 9 C-2.01 6.03 -1.02 3.06 0 0 Z " fill="#2F2F2F" transform="translate(192,319)"/>
<path d="M0 0 C0.78246094 -0.02578125 1.56492188 -0.0515625 2.37109375 -0.078125 C5.04181509 0.32176911 5.88227439 1.19699122 7.5625 3.25 C6.31533203 3.21519531 6.31533203 3.21519531 5.04296875 3.1796875 C3.41294922 3.15261719 3.41294922 3.15261719 1.75 3.125 C0.67105469 3.10179687 -0.40789062 3.07859375 -1.51953125 3.0546875 C-4.63152868 3.01976283 -4.63152868 3.01976283 -7.4375 5.25 C-8.4275 6.735 -8.4275 6.735 -9.4375 8.25 C-9.7675 7.92 -10.0975 7.59 -10.4375 7.25 C-11.0975 7.91 -11.7575 8.57 -12.4375 9.25 C-12.09782174 6.07966958 -11.43880809 5.25117393 -9 3.0625 C-5.70666875 0.73307058 -3.98014025 0.07842641 0 0 Z " fill="#343434" transform="translate(200.4375,262.75)"/>
<path d="M0 0 C-0.33 1.98 -0.66 3.96 -1 6 C-1.99 6 -2.98 6 -4 6 C-4 4.68 -4 3.36 -4 2 C-5.1446875 2.7115625 -5.1446875 2.7115625 -6.3125 3.4375 C-9 5 -9 5 -12 6 C-10.84826645 3.53199953 -9.95216435 1.95216435 -8 0 C-4.69164744 -0.93312508 -3.32320026 -1.10773342 0 0 Z " fill="#E7E7E7" transform="translate(230,250)"/>
<path d="M0 0 C-3.67218793 2.07149063 -7.58321376 3.15051026 -11.625 4.25 C-12.305625 4.44851562 -12.98625 4.64703125 -13.6875 4.8515625 C-15.43539968 5.32826241 -17.21775282 5.67443728 -19 6 C-19.66 5.34 -20.32 4.68 -21 4 C-18.63011071 3.12862849 -16.25585224 2.27793192 -13.875 1.4375 C-13.20984375 1.19064453 -12.5446875 0.94378906 -11.859375 0.68945312 C-7.50242673 -0.82693574 -4.46985184 -1.16271847 0 0 Z " fill="#323232" transform="translate(218,197)"/>
<path d="M0 0 C0.66 0 1.32 0 2 0 C2.33 0.99 2.66 1.98 3 3 C3.99 2.01 4.98 1.02 6 0 C6.66 0.33 7.32 0.66 8 1 C7.34 2.32 6.68 3.64 6 5 C6.99 6.32 7.98 7.64 9 9 C6.03824877 8.38722388 4.61941217 7.74627478 2 6 C2 6.99 2 7.98 2 9 C1.34 9 0.68 9 0 9 C0 6.03 0 3.06 0 0 Z " fill="#1C1C1C" transform="translate(215,319)"/>
<path d="M0 0 C2.31 0 4.62 0 7 0 C7 0.33 7 0.66 7 1 C5.35 1 3.7 1 2 1 C2 1.66 2 2.32 2 3 C3.32 3 4.64 3 6 3 C6 3.66 6 4.32 6 5 C4.68 5 3.36 5 2 5 C2 5.66 2 6.32 2 7 C3.65 7 5.3 7 7 7 C7 7.66 7 8.32 7 9 C4.69 9 2.38 9 0 9 C0 6.03 0 3.06 0 0 Z " fill="#141414" transform="translate(305,319)"/>
<path d="M0 0 C1.98 0 3.96 0 6 0 C4.68 0.33 3.36 0.66 2 1 C2 1.66 2 2.32 2 3 C3.32 3 4.64 3 6 3 C6 3.66 6 4.32 6 5 C4.68 5 3.36 5 2 5 C2 5.66 2 6.32 2 7 C3.65 7 5.3 7 7 7 C7 7.66 7 8.32 7 9 C4.69 9 2.38 9 0 9 C0 6.03 0 3.06 0 0 Z " fill="#1D1D1D" transform="translate(228,319)"/>
<path d="M0 0 C0.94875 0.04125 1.8975 0.0825 2.875 0.125 C2.875 0.785 2.875 1.445 2.875 2.125 C1.225 2.455 -0.425 2.785 -2.125 3.125 C-2.125 4.115 -2.125 5.105 -2.125 6.125 C-0.475 6.455 1.175 6.785 2.875 7.125 C2.545 7.785 2.215 8.445 1.875 9.125 C-0.5 9.25 -0.5 9.25 -3.125 9.125 C-5.125 7.125 -5.125 7.125 -5.375 4.625 C-4.98192433 0.69424327 -3.8631953 0.15452781 0 0 Z " fill="#1F1F1F" transform="translate(297.125,318.875)"/>
<path d="M0 0 C1.8125 0.1875 1.8125 0.1875 4 1 C5.75 3.5625 5.75 3.5625 7 6 C2.25 9 2.25 9 0 9 C0.875 3.25 0.875 3.25 2 1 C1.34 0.67 0.68 0.34 0 0 Z " fill="#EDD1D9" transform="translate(254,247)"/>
<path d="M0 0 C0.33 0.99 0.66 1.98 1 3 C1.66 3.33 2.32 3.66 3 4 C2.38125 4.598125 1.7625 5.19625 1.125 5.8125 C-1.13676954 8.00811144 -1.13676954 8.00811144 -3 11 C-3.66 10.67 -4.32 10.34 -5 10 C-4.67 9.34 -4.34 8.68 -4 8 C-4.66 7.67 -5.32 7.34 -6 7 C-5.071875 6.1028125 -5.071875 6.1028125 -4.125 5.1875 C-1.86323046 2.99188856 -1.86323046 2.99188856 0 0 Z " fill="#060606" transform="translate(252,254)"/>
<path d="M0 0 C4.17882671 2.56428003 7.12505529 5.01930733 10 9 C7.087425 8.91433603 5.43201976 8.42089045 3.33203125 6.375 C1.83908228 4.61608625 0.39563738 2.83686981 -1 1 C-0.67 0.67 -0.34 0.34 0 0 Z " fill="#191919" transform="translate(195,248)"/>
<path d="M0 0 C5.41490891 0.43319271 8.75792422 1.56593865 13 5 C13.33 5.99 13.66 6.98 14 8 C9.33333333 5.66666667 4.66666667 3.33333333 0 1 C0 0.67 0 0.34 0 0 Z " fill="#191717" transform="translate(289,194)"/>
<path d="M0 0 C0.66 0 1.32 0 2 0 C2 2.31 2 4.62 2 7 C3.65 7 5.3 7 7 7 C7 7.66 7 8.32 7 9 C4.69 9 2.38 9 0 9 C0 6.03 0 3.06 0 0 Z " fill="#111010" transform="translate(269,319)"/>
<path d="M0 0 C1.32 0 2.64 0 4 0 C3.42655063 2.86724686 3.1385485 3.8614515 1 6 C0.01 6 -0.98 6 -2 6 C-1.125 1.125 -1.125 1.125 0 0 Z " fill="#EBCFD7" transform="translate(245,251)"/>
<path d="M0 0 C0.66 0 1.32 0 2 0 C1.64987213 2.59094622 1.26229035 4.5774211 -0.125 6.8125 C-3.00868162 8.63883169 -5.67745793 8.18806842 -9 8 C-8.67 7.01 -8.34 6.02 -8 5 C-8 5.66 -8 6.32 -8 7 C-3.49556115 5.6608425 -2.2335575 4.04167548 0 0 Z " fill="#090808" transform="translate(250,250)"/>
<path d="M0 0 C0.90105469 0.00902344 1.80210937 0.01804688 2.73046875 0.02734375 C3.41753906 0.03894531 4.10460937 0.05054688 4.8125 0.0625 C4.8125 0.3925 4.8125 0.7225 4.8125 1.0625 C-0.41262279 2.52920113 -4.7689234 3.28827402 -10.1875 3.0625 C-7.02470604 -0.10029396 -4.26614261 -0.05540445 0 0 Z " fill="#1B1B1B" transform="translate(225.1875,193.9375)"/>
<path d="M0 0 C0.66 0 1.32 0 2 0 C1.69611836 2.93752254 1.19330344 3.84080893 -1.125 5.75 C-4.59278683 7.2577334 -7.25670998 7.22019353 -11 7 C-11 6.67 -11 6.34 -11 6 C-9.9275 5.7525 -8.855 5.505 -7.75 5.25 C-3.95411278 3.98470426 -2.60376183 2.8930687 0 0 Z " fill="#171717" transform="translate(240,277)"/>
<path d="M0 0 C0.66 0 1.32 0 2 0 C1.34 2.64 0.68 5.28 0 8 C0.99 7.67 1.98 7.34 3 7 C2.67 7.99 2.34 8.98 2 10 C-1 9 -1 9 -2.375 7.25 C-3 5 -3 5 -1.75 2.25 C-1.1725 1.5075 -0.595 0.765 0 0 Z " fill="#2C2628" transform="translate(254,248)"/>
<path d="M0 0 C0.99 0 1.98 0 3 0 C3.66 1.65 4.32 3.3 5 5 C3.35 5.33 1.7 5.66 0 6 C-1.125 2.25 -1.125 2.25 0 0 Z " fill="#454444" transform="translate(282,319)"/>
<path d="M0 0 C0.99 0 1.98 0 3 0 C4.25541557 3.76624671 3.37061958 5.37188934 2 9 C1.34 9 0.68 9 0 9 C0 6.03 0 3.06 0 0 Z " fill="#2C2C2C" transform="translate(174,319)"/>
<path d="M0 0 C0.33 0.66 0.66 1.32 1 2 C-1.36292656 4.52588702 -2.66462511 5.88820837 -6 7 C-6.66 5.68 -7.32 4.36 -8 3 C-6.865625 2.690625 -5.73125 2.38125 -4.5625 2.0625 C-1.21224901 1.37075469 -1.21224901 1.37075469 0 0 Z " fill="#B7A2A8" transform="translate(250,255)"/>
<path d="M0 0 C0 0.66 0 1.32 0 2 C0.66 2.33 1.32 2.66 2 3 C1.67 3.99 1.34 4.98 1 6 C-1.46800047 4.84826645 -3.04783565 3.95216435 -5 2 C-2 0 -2 0 0 0 Z " fill="#F5D8E0" transform="translate(239,250)"/>
<path d="M0 0 C0.66 0 1.32 0 2 0 C3.125 5.625 3.125 5.625 2 9 C1.34 9 0.68 9 0 9 C0 6.03 0 3.06 0 0 Z " fill="#0F0F0F" transform="translate(215,319)"/>
<path d="M0 0 C1.65 0.33 3.3 0.66 5 1 C3.35 2.65 1.7 4.3 0 6 C-0.66 5.67 -1.32 5.34 -2 5 C-1.34 3.35 -0.68 1.7 0 0 Z " fill="#0E0D0D" transform="translate(233,248)"/>
<path d="M0 0 C0.66 0.33 1.32 0.66 2 1 C-0.1875 3.5625 -0.1875 3.5625 -3 6 C-5.8125 5.8125 -5.8125 5.8125 -8 5 C-7.67 4.34 -7.34 3.68 -7 3 C-5.33499557 2.65846063 -3.66821323 2.32550502 -2 2 C-1.34 1.34 -0.68 0.68 0 0 Z " fill="#474747" transform="translate(285,252)"/>
<path d="M0 0 C0.99 0.33 1.98 0.66 3 1 C1.37660195 2.70884005 -0.29319053 4.37446717 -2 6 C-2.66 6 -3.32 6 -4 6 C-2.84826645 3.53199953 -1.95216435 1.95216435 0 0 Z " fill="#EFEFEF" transform="translate(222,250)"/>
</svg>
