<?xml version="1.0" encoding="UTF-8"?>
<svg version="1.1" xmlns="http://www.w3.org/2000/svg" width="500" height="500">
<path d="M0 0 C165 0 330 0 500 0 C500 165 500 330 500 500 C335 500 170 500 0 500 C0 335 0 170 0 0 Z " fill="#FEFEFE" transform="translate(0,0)"/>
<path d="M0 0 C1.21269562 -0.00012085 2.42539124 -0.0002417 3.67483521 -0.00036621 C82.54948938 0.11098837 82.54948938 0.11098837 105.625 20.375 C107.375 22.3828125 107.375 22.3828125 108.625 24.375 C108.3125 27.125 108.3125 27.125 107.625 29.375 C105.645 29.87 105.645 29.87 103.625 30.375 C103.3775 29.8903125 103.13 29.405625 102.875 28.90625 C96.54782381 18.6245887 82.86104255 14.10943513 71.625 11.375 C70.48289062 11.04886719 69.34078125 10.72273437 68.1640625 10.38671875 C60.99899342 8.3816426 53.89868142 6.99483489 46.4921875 6.265625 C45.63338989 6.18104538 44.77459229 6.09646576 43.88977051 6.00932312 C34.59204749 5.17195608 25.31791859 5.10784492 15.98876953 5.16918945 C13.12653631 5.18749018 10.26462967 5.18969756 7.40234375 5.18945312 C-33.11277947 5.26474351 -74.05074361 9.27981776 -113.375 19.375 C-114.29829102 19.60767578 -115.22158203 19.84035156 -116.17285156 20.08007812 C-130.7395733 23.79745707 -144.54226222 28.47618622 -158.2980957 34.54638672 C-160.3081286 35.34832062 -162.26538614 35.90394719 -164.375 36.375 C-164.375 37.365 -164.375 38.355 -164.375 39.375 C-163.385 39.87 -163.385 39.87 -162.375 40.375 C-162.375 41.035 -162.375 41.695 -162.375 42.375 C-161.78332031 42.48457031 -161.19164062 42.59414062 -160.58203125 42.70703125 C-155.84968591 43.65658831 -152.50972206 44.85382801 -148.375 47.375 C-145.75932621 48.16750399 -143.13672489 48.87208612 -140.484375 49.53125 C-139.78828125 49.8096875 -139.0921875 50.088125 -138.375 50.375 C-138.045 51.365 -137.715 52.355 -137.375 53.375 C-135.5496875 53.560625 -135.5496875 53.560625 -133.6875 53.75 C-130.31020941 54.16391306 -127.47743305 54.92073451 -124.375 56.375 C-124.375 57.035 -124.375 57.695 -124.375 58.375 C-123.42625 58.436875 -122.4775 58.49875 -121.5 58.5625 C-117.09929969 59.16056678 -113.637372 61.17312125 -109.75390625 63.23046875 C-106.98602512 64.56214226 -104.43262057 65.1336089 -101.375 65.375 C-101.375 66.035 -101.375 66.695 -101.375 67.375 C-100.12589844 67.50841797 -100.12589844 67.50841797 -98.8515625 67.64453125 C-94.71257383 68.51418393 -91.47058733 70.10877515 -87.75 72.0625 C-86.3320318 72.78906357 -84.91406304 73.51562606 -83.49609375 74.2421875 C-82.79983887 74.60280273 -82.10358398 74.96341797 -81.38623047 75.33496094 C-78.53904247 76.80728685 -75.67725404 78.24970415 -72.8125 79.6875 C-71.8534375 80.16960937 -70.894375 80.65171875 -69.90625 81.1484375 C-67.91125028 82.11515033 -65.86832476 82.98295668 -63.8125 83.8125 C-59.50741667 85.76935606 -55.68344015 88.26713706 -51.73046875 90.8515625 C-49.48024205 92.36830667 -49.48024205 92.36830667 -47.375 93.375 C-47.375 94.035 -47.375 94.695 -47.375 95.375 C-46.199375 95.74625 -46.199375 95.74625 -45 96.125 C-41.91006013 97.59639994 -41.83840773 98.44818455 -40.375 101.375 C-38.72061387 102.07158363 -37.05245682 102.73596883 -35.375 103.375 C-33.0625 105.375 -33.0625 105.375 -31.375 107.375 C-31.375 108.035 -31.375 108.695 -31.375 109.375 C-30.715 109.375 -30.055 109.375 -29.375 109.375 C-24.64423077 114.56730769 -24.64423077 114.56730769 -23.375 118.375 C-22.694375 118.849375 -22.01375 119.32375 -21.3125 119.8125 C-20.673125 120.328125 -20.03375 120.84375 -19.375 121.375 C-19.375 122.695 -19.375 124.015 -19.375 125.375 C-18.715 125.375 -18.055 125.375 -17.375 125.375 C-15.33330515 128.28048882 -14.375 129.77642046 -14.375 133.375 C-13.385 133.375 -12.395 133.375 -11.375 133.375 C-9.9055191 131.60767901 -9.9055191 131.60767901 -8.6875 129.375 C-8.25050781 128.6325 -7.81351563 127.89 -7.36328125 127.125 C-7.03714844 126.5475 -6.71101562 125.97 -6.375 125.375 C-5.055 125.705 -3.735 126.035 -2.375 126.375 C-2.77920931 132.03393033 -4.57836985 134.39757794 -8.375 138.375 C-9.365 139.035 -10.355 139.695 -11.375 140.375 C-11.045 140.705 -10.715 141.035 -10.375 141.375 C-10.71608205 148.19664097 -12.40696179 154.17687661 -14.53515625 160.65234375 C-15.47325338 163.21864966 -15.47325338 163.21864966 -15.375 165.375 C-14.31539062 164.7975 -13.25578125 164.22 -12.1640625 163.625 C-10.77615942 162.87478212 -9.38813213 162.12479399 -8 161.375 C-7.30132812 160.9934375 -6.60265625 160.611875 -5.8828125 160.21875 C-0.6015625 157.375 -0.6015625 157.375 1.625 157.375 C1.91375 156.6325 2.2025 155.89 2.5 155.125 C3.056875 153.76375 3.056875 153.76375 3.625 152.375 C3.893125 151.6325 4.16125 150.89 4.4375 150.125 C5.625 148.375 5.625 148.375 8.25 147.625 C9.03375 147.5425 9.8175 147.46 10.625 147.375 C11.55923645 150.38531744 11.66949911 151.24150268 10.625 154.375 C11.34945312 153.941875 12.07390625 153.50875 12.8203125 153.0625 C13.78710938 152.505625 14.75390625 151.94875 15.75 151.375 C16.70132813 150.818125 17.65265625 150.26125 18.6328125 149.6875 C21.92254838 148.2444827 24.07231297 148.05294339 27.625 148.375 C28.285 148.705 28.945 149.035 29.625 149.375 C29.1797115 154.64815333 28.54126837 159.39270224 26.625 164.375 C28.23285777 163.78072612 29.83617709 163.17416412 31.4375 162.5625 C32.33082031 162.22605469 33.22414063 161.88960937 34.14453125 161.54296875 C38.22949869 159.61949589 39.86742791 157.12870494 42 153.25 C44.25584663 149.50625453 44.25584663 149.50625453 47.4375 148.375 C48.159375 148.375 48.88125 148.375 49.625 148.375 C49.34140113 149.8141134 49.04778601 151.25125518 48.75 152.6875 C48.50636719 153.88826172 48.50636719 153.88826172 48.2578125 155.11328125 C47.625 157.375 47.625 157.375 45.625 160.375 C45.24000109 162.03049531 44.89706865 163.6972433 44.625 165.375 C53.06413279 163.1734871 58.87060262 159.9374449 65.625 154.375 C65.955 155.365 66.285 156.355 66.625 157.375 C61.17130455 164.36730785 55.4325192 170.29224737 46.31640625 171.7421875 C42.58126389 171.86555 40.76807694 171.47038462 37.625 169.375 C37.295 168.385 36.965 167.395 36.625 166.375 C36.11710938 166.66375 35.60921875 166.9525 35.0859375 167.25 C30.79753544 169.56284606 27.62419599 171.07256223 22.625 170.375 C21.635 169.715 20.645 169.055 19.625 168.375 C19.05735437 162.69854367 19.63143554 159.36427411 22.625 154.375 C15.72893876 157.61018922 10.7344305 161.84951198 5.3984375 167.265625 C2.09313118 169.77951995 -0.28120823 170.11218868 -4.375 170.375 C-4.045 168.395 -3.715 166.415 -3.375 164.375 C-5.79917876 165.7589528 -8.21376114 167.15631542 -10.625 168.5625 C-11.30691406 168.94986328 -11.98882812 169.33722656 -12.69140625 169.73632812 C-13.35527344 170.12626953 -14.01914062 170.51621094 -14.703125 170.91796875 C-15.3105957 171.26883545 -15.91806641 171.61970215 -16.54394531 171.98120117 C-20.72942949 175.16719173 -23.00441661 179.29633386 -25.109375 184.0234375 C-25.59704346 185.10439697 -26.08471191 186.18535645 -26.5871582 187.29907227 C-27.094646 188.43787842 -27.60213379 189.57668457 -28.125 190.75 C-45.30486486 228.55928155 -45.30486486 228.55928155 -59.5 234.125 C-69.92566641 237.30334386 -81.42703273 235.66002218 -91.17578125 231.05078125 C-96.28511226 228.16684775 -100.0627643 225.2329457 -103.375 220.375 C-103.375 219.715 -103.375 219.055 -103.375 218.375 C-104.25285156 218.5915625 -104.25285156 218.5915625 -105.1484375 218.8125 C-121.53545494 222.35563891 -137.24583552 220.14746159 -153.375 216.375 C-154.08269531 216.2095166 -154.79039062 216.0440332 -155.51953125 215.87353516 C-163.87117019 213.85357515 -172.5964114 211.59812844 -178.5 205 C-179.79399491 201.11801528 -179.70394665 199.29539263 -178.375 195.375 C-171.12990287 186.98263152 -161.75396689 182.21800582 -150.8125 181.1171875 C-143.98628962 180.82629785 -137.32471334 181.8183448 -131.375 185.375 C-130.5703125 187.515625 -130.5703125 187.515625 -130.375 189.375 C-133.44187255 188.93687535 -136.17315592 188.45479882 -139.0625 187.3125 C-146.37856279 185.24191619 -153.42173729 185.57523451 -160.2265625 189.0390625 C-163.96469282 191.3634999 -167.68750979 193.85270357 -170.375 197.375 C-171.07816355 199.85599412 -171.07816355 199.85599412 -170.375 202.375 C-162.48385597 210.45402842 -147.99686307 211.52560345 -137.375 213.375 C-136.22837891 213.57609375 -136.22837891 213.57609375 -135.05859375 213.78125 C-129.76148279 214.52761397 -124.40302122 214.50601727 -119.0625 214.5625 C-117.87756958 214.58219849 -117.87756958 214.58219849 -116.66870117 214.60229492 C-111.24478767 214.62931206 -111.24478767 214.62931206 -106.375 212.375 C-105.99423814 207.49560724 -106.58237431 205.33876805 -109.75 201.625 C-118.88032656 191.05762682 -128.95898465 181.08580781 -139.53295898 171.96972656 C-142.20026179 169.66053877 -144.78365618 167.26917636 -147.375 164.875 C-151.3353961 161.22736473 -155.33293582 157.63168947 -159.3984375 154.1015625 C-163.43501214 150.57554276 -167.40218732 146.97247428 -171.375 143.375 C-172.303125 142.54097656 -173.23125 141.70695313 -174.1875 140.84765625 C-177.27635389 138.05043617 -180.33762417 135.22790883 -183.375 132.375 C-183.95362793 131.83182129 -184.53225586 131.28864258 -185.12841797 130.72900391 C-198.83853131 117.74574537 -211.96737 102.83171553 -212.875 83 C-212.73195578 70.46412498 -205.94570523 60.71886782 -197.3515625 52.171875 C-181.15689639 36.74939088 -160.52357734 27.11157954 -139.375 20.375 C-138.48296875 20.08818359 -137.5909375 19.80136719 -136.671875 19.50585938 C-114.75518422 12.55851057 -92.41658821 7.93090078 -69.6875 4.625 C-69.00456879 4.52394958 -68.32163757 4.42289917 -67.61801147 4.31878662 C-45.16393128 1.03602834 -22.6750476 -0.03506662 0 0 Z " fill="#FEE0E8" transform="translate(313.375,132.625)"/>
<path d="M0 0 C2.56708809 0.6280386 5.13323895 1.25954605 7.69897461 1.89306641 C8.42174339 2.06951187 9.14451218 2.24595734 9.88918304 2.42774963 C14.9731614 3.68698813 19.7966615 5.17867566 24.5625 7.375 C25.22523926 7.67317627 25.88797852 7.97135254 26.57080078 8.27856445 C31.90663201 10.76945571 37.39764755 13.5325093 39.9765625 19.11328125 C40.91192202 21.35015041 40.91192202 21.35015041 44 22 C44.04687762 41.15084473 44.08206567 60.3016777 44.10362434 79.45256805 C44.11390383 88.34616523 44.12789994 97.2397266 44.15087891 106.13330078 C44.1709153 113.89175871 44.18374057 121.65019068 44.18817699 129.40867376 C44.19076715 133.51052409 44.19678437 137.61230022 44.21146011 141.71412659 C44.22520669 145.58826556 44.22918882 149.46230097 44.22621536 153.33646202 C44.226758 154.74557245 44.23063246 156.15468696 44.23841095 157.56377602 C44.29079938 167.55868935 43.42831532 177.12630062 42 187 C41.78587054 188.5267271 41.78587054 188.5267271 41.56741524 190.08429718 C41.23115802 192.45547148 40.87027143 194.82142484 40.5 197.1875 C40.38269531 197.97962891 40.26539063 198.77175781 40.14453125 199.58789062 C39.50732205 203.6749367 38.64318968 207.18104534 37 211 C36.53605681 212.84772752 36.09996664 214.70260442 35.6875 216.5625 C34.13108777 223.02080846 31.71380599 228.95025069 29 235 C28.34 235 27.68 235 27 235 C26.938125 235.78375 26.87625 236.5675 26.8125 237.375 C25.6967665 242.35288793 23.39693773 246.52453694 21 251 C20.34 251 19.68 251 19 251 C18.9175 251.94875 18.835 252.8975 18.75 253.875 C18.37875 255.421875 18.37875 255.421875 18 257 C17.0409375 257.4640625 17.0409375 257.4640625 16.0625 257.9375 C15.381875 258.288125 14.70125 258.63875 14 259 C13.67 260.155 13.34 261.31 13 262.5 C12 266 12 266 9.875 267.4375 C9.25625 267.623125 8.6375 267.80875 8 268 C8 268.66 8 269.32 8 270 C7.34 270 6.68 270 6 270 C5.814375 270.680625 5.62875 271.36125 5.4375 272.0625 C3.40898329 276.2077298 0.33024912 278.86479801 -3 282 C-3.86625 282.86625 -4.7325 283.7325 -5.625 284.625 C-6.40875 285.40875 -7.1925 286.1925 -8 287 C-9.1446875 288.175625 -9.1446875 288.175625 -10.3125 289.375 C-13.7496686 292.73223445 -17.33343575 295.89592004 -21 299 C-21.74894531 299.64839844 -22.49789062 300.29679687 -23.26953125 300.96484375 C-26.57140388 303.42589616 -29.99383697 305.20242314 -33.6875 307 C-34.40373535 307.35030273 -35.1199707 307.70060547 -35.85791016 308.06152344 C-37.90040011 309.05162586 -39.94870253 310.0283048 -42 311 C-43.30517578 311.62648438 -43.30517578 311.62648438 -44.63671875 312.265625 C-51.53381932 315.29890483 -58.87438573 316.6460646 -66.21875 318.16796875 C-69.7868105 318.79150848 -69.7868105 318.79150848 -72 320 C-74.22746339 320.09772811 -76.4578947 320.13077394 -78.6875 320.1328125 C-79.67496216 320.13424759 -79.67496216 320.13424759 -80.68237305 320.13571167 C-82.07438248 320.13639225 -83.4663951 320.13454646 -84.85839844 320.13037109 C-86.99160883 320.12502104 -89.12460867 320.13032012 -91.2578125 320.13671875 C-92.60937547 320.13605795 -93.9609383 320.13477674 -95.3125 320.1328125 C-97.16294922 320.13112061 -97.16294922 320.13112061 -99.05078125 320.12939453 C-102 320 -102 320 -104 319 C-104 318.34 -104 317.68 -104 317 C-104.66 317 -105.32 317 -106 317 C-109.4356202 311.55689977 -108.28232973 305.02225009 -107 299 C-104.49782323 294.6419888 -101.8056072 291.60186907 -97 290 C-96.484375 289.34 -95.96875 288.68 -95.4375 288 C-91.58780433 284.84127535 -87.86662955 285.13888122 -83 285 C-82.31921387 284.97421875 -81.63842773 284.9484375 -80.93701172 284.921875 C-70.25208944 284.55143349 -60.43426085 285.24377537 -49.99560547 287.56347656 C-46.46775863 288.33516608 -42.92186384 289.00977882 -39.375 289.6875 C-38.10398437 289.93886719 -36.83296875 290.19023437 -35.5234375 290.44921875 C-30.21931623 291.27835522 -25.82007496 291.61661212 -21 289 C-20.67 288.01 -20.34 287.02 -20 286 C-19.01 285.67 -18.02 285.34 -17 285 C-11.81985191 279.7256674 -8.77095834 274.13443216 -7 267 C-6.34 267 -5.68 267 -5 267 C-4.86722656 266.25234375 -4.73445313 265.5046875 -4.59765625 264.734375 C-4.33275391 263.25710938 -4.33275391 263.25710938 -4.0625 261.75 C-3.80146484 260.28820312 -3.80146484 260.28820312 -3.53515625 258.796875 C-3.09620271 256.50278205 -2.59651408 254.25708029 -2 252 C-4.64 252 -7.28 252 -10 252 C-10 246.06 -10 240.12 -10 234 C-6.37 234 -2.74 234 1 234 C0.67 233.01 0.34 232.02 0 231 C-0.06210595 228.56541931 -0.06703544 226.16329727 -0.02172852 223.73046875 C-0.01212097 222.99357819 -0.00251343 222.25668762 0.00738525 221.49746704 C0.04037341 219.06071415 0.08071655 216.62414073 0.12109375 214.1875 C0.14540236 212.49504234 0.16924554 210.80257793 0.19264221 209.11010742 C0.25548571 204.65271462 0.324533 200.19543877 0.39489746 195.73815918 C0.46545771 191.20309631 0.53040839 186.66795372 0.59570312 182.1328125 C0.66934331 177.03862789 0.74361216 171.9444576 0.82188416 166.8503418 C0.83971703 165.68817642 0.83971703 165.68817642 0.85791016 164.50253296 C0.88020957 163.05601689 0.90270384 161.60950381 0.9254303 160.16299438 C0.96740268 157.44156374 1 154.72181588 1 152 C1.62599617 150.31763529 2.28752268 148.6476038 3 147 C2.34 146.34 1.68 145.68 1 145 C0.73828697 142.4893856 0.73828697 142.4893856 0.7215271 139.25473022 C0.71036362 138.03192856 0.69920013 136.80912689 0.68769836 135.54927063 C0.68533318 134.18698151 0.68315757 132.82469204 0.68115234 131.46240234 C0.67185819 130.03354827 0.6616903 128.60469966 0.65071106 127.17585754 C0.62333895 123.28974788 0.60824041 119.4036746 0.59528303 115.51749372 C0.57968391 111.45885497 0.55288351 107.40029089 0.5272522 103.34170532 C0.48040722 95.65299344 0.44369087 87.96426759 0.41057932 80.27548563 C0.37239825 71.52344365 0.32297764 62.77147656 0.27259517 54.01949763 C0.1691903 36.01305318 0.07995781 18.00656306 0 0 Z " fill="#FDE0E8" transform="translate(376,141)"/>
<path d="M0 0 C2.66578758 0.00314362 5.33044379 -0.02031635 7.99609375 -0.0456543 C18.10562705 -0.08200586 27.70462776 0.66349583 37.63647461 2.57275391 C41.42710014 3.2893392 45.1784619 3.83155443 49.00390625 4.31567383 C54.13962173 5.0264995 58.98573001 6.13302014 63.95703125 7.58911133 C67.42824159 8.55564594 70.93144252 9.23063184 74.47265625 9.88598633 C76.56640625 10.31567383 76.56640625 10.31567383 79.56640625 11.31567383 C79.56640625 11.97567383 79.56640625 12.63567383 79.56640625 13.31567383 C80.78263672 13.53610352 80.78263672 13.53610352 82.0234375 13.76098633 C89.18434909 15.21150858 94.96801055 17.22762109 101.2265625 21.01098633 C103.40597857 22.22622 105.15878594 22.77219151 107.56640625 23.31567383 C109.95417431 66.32407596 109.95417431 66.32407596 109.56640625 86.31567383 C106.59640625 86.81067383 106.59640625 86.81067383 103.56640625 87.31567383 C102.57640625 83.35567383 102.57640625 83.35567383 101.56640625 79.31567383 C100.90640625 79.31567383 100.24640625 79.31567383 99.56640625 79.31567383 C98.89485692 78.02653896 98.22931766 76.73427179 97.56640625 75.44067383 C97.19515625 74.72137695 96.82390625 74.00208008 96.44140625 73.26098633 C95.56640625 71.31567383 95.56640625 71.31567383 95.56640625 69.31567383 C94.90640625 69.31567383 94.24640625 69.31567383 93.56640625 69.31567383 C93.23640625 67.33567383 92.90640625 65.35567383 92.56640625 63.31567383 C91.90640625 63.31567383 91.24640625 63.31567383 90.56640625 63.31567383 C89.3125 61.88989258 89.3125 61.88989258 88.00390625 60.00317383 C87.35228516 59.08084961 87.35228516 59.08084961 86.6875 58.13989258 C85.56640625 56.31567383 85.56640625 56.31567383 84.56640625 53.31567383 C83.57640625 52.65567383 82.58640625 51.99567383 81.56640625 51.31567383 C81.56640625 50.65567383 81.56640625 49.99567383 81.56640625 49.31567383 C80.90640625 49.31567383 80.24640625 49.31567383 79.56640625 49.31567383 C79.13328125 48.55254883 78.70015625 47.78942383 78.25390625 47.00317383 C76.75013857 44.15501036 76.75013857 44.15501036 73.94140625 42.75317383 C73.15765625 42.27879883 72.37390625 41.80442383 71.56640625 41.31567383 C71.40140625 40.63504883 71.23640625 39.95442383 71.06640625 39.25317383 C70.90140625 38.61379883 70.73640625 37.97442383 70.56640625 37.31567383 C68.90655827 36.63220701 67.2380382 35.96979068 65.56640625 35.31567383 C63.70584102 33.83456598 61.96002131 32.27039908 60.21484375 30.65551758 C58.4932943 29.09520828 58.4932943 29.09520828 55.56640625 28.31567383 C54.55576886 27.32642559 53.55620296 26.32577406 52.56640625 25.31567383 C45.8583246 21.5889618 38.74494612 18.99085399 31.56640625 16.31567383 C30.62607544 15.93922729 30.62607544 15.93922729 29.66674805 15.55517578 C8.58748379 7.24575096 -18.7940702 7.57184968 -40.43359375 13.31567383 C-41.35398437 13.52063477 -42.274375 13.7255957 -43.22265625 13.93676758 C-50.16583269 15.66718771 -55.55963976 19.34556667 -61.43359375 23.31567383 C-66.14495739 26.31567383 -66.14495739 26.31567383 -68.43359375 26.31567383 C-68.43359375 26.97567383 -68.43359375 27.63567383 -68.43359375 28.31567383 C-70.41619801 30.0029966 -72.41682795 31.6693344 -74.43359375 33.31567383 C-74.92859375 34.30567383 -74.92859375 34.30567383 -75.43359375 35.31567383 C-76.09359375 35.31567383 -76.75359375 35.31567383 -77.43359375 35.31567383 C-77.71976563 35.88801758 -78.0059375 36.46036133 -78.30078125 37.05004883 C-80.01171875 40.47192383 -81.72265625 43.89379883 -83.43359375 47.31567383 C-84.09359375 47.31567383 -84.75359375 47.31567383 -85.43359375 47.31567383 C-85.72363281 48.38495117 -85.72363281 48.38495117 -86.01953125 49.47583008 C-86.27992187 50.43360352 -86.5403125 51.39137695 -86.80859375 52.37817383 C-87.19144531 53.78776367 -87.19144531 53.78776367 -87.58203125 55.22583008 C-88.15946389 57.32100998 -88.80691483 59.39790063 -89.515625 61.45239258 C-90.76096793 66.69343156 -90.7627854 71.69763855 -90.74609375 77.06567383 C-90.76220703 78.08661133 -90.77832031 79.10754883 -90.79492188 80.15942383 C-90.8007387 89.32674496 -89.12502167 97.75286272 -84.87109375 105.94067383 C-84.45730469 106.75793945 -84.04351562 107.57520508 -83.6171875 108.41723633 C-82.56992447 110.46517399 -82.56992447 110.46517399 -80.43359375 111.31567383 C-79.4565963 113.07426925 -78.48084095 114.83361036 -77.51953125 116.60083008 C-76.16942085 118.73283895 -74.50415467 119.91065035 -72.43359375 121.31567383 C-72.43359375 121.97567383 -72.43359375 122.63567383 -72.43359375 123.31567383 C-71.44359375 123.64567383 -70.45359375 123.97567383 -69.43359375 124.31567383 C-68.21915835 125.79268986 -67.0065942 127.27138371 -65.8125 128.76489258 C-62.41052645 132.59090816 -57.58732767 134.81445241 -53.1796875 137.30786133 C-50.48708771 138.86197933 -47.94516341 140.47793993 -45.43359375 142.31567383 C-45.43359375 142.97567383 -45.43359375 143.63567383 -45.43359375 144.31567383 C-47.48828125 145.76098633 -47.48828125 145.76098633 -50.30859375 147.44067383 C-62.97579246 155.31707303 -73.87775855 164.6769011 -80.43359375 178.31567383 C-81.03171875 177.65567383 -81.62984375 176.99567383 -82.24609375 176.31567383 C-85.70561988 172.81638303 -89.77122559 170.15830158 -93.8125 167.37817383 C-96.50707833 165.2578499 -98.35913284 163.02912269 -100.43359375 160.31567383 C-101.17609375 159.75879883 -101.91859375 159.20192383 -102.68359375 158.62817383 C-103.26109375 158.19504883 -103.83859375 157.76192383 -104.43359375 157.31567383 C-104.43359375 156.65567383 -104.43359375 155.99567383 -104.43359375 155.31567383 C-105.09359375 155.31567383 -105.75359375 155.31567383 -106.43359375 155.31567383 C-106.43359375 154.65567383 -106.43359375 153.99567383 -106.43359375 153.31567383 C-107.09359375 153.31567383 -107.75359375 153.31567383 -108.43359375 153.31567383 C-123.28098271 134.90950349 -126.29565645 110.1228454 -124.43359375 87.31567383 C-123.16387926 78.29870282 -120.25460593 69.56101589 -116.43359375 61.31567383 C-115.91796875 60.18129883 -115.40234375 59.04692383 -114.87109375 57.87817383 C-111.66463234 51.03164997 -108.3020302 44.30152221 -102.43359375 39.31567383 C-101.77359375 39.31567383 -101.11359375 39.31567383 -100.43359375 39.31567383 C-99.77359375 37.99567383 -99.11359375 36.67567383 -98.43359375 35.31567383 C-97.77359375 35.31567383 -97.11359375 35.31567383 -96.43359375 35.31567383 C-95.77359375 33.99567383 -95.11359375 32.67567383 -94.43359375 31.31567383 C-93.77359375 31.31567383 -93.11359375 31.31567383 -92.43359375 31.31567383 C-92.43359375 30.65567383 -92.43359375 29.99567383 -92.43359375 29.31567383 C-88.05448237 25.23937334 -80.60731858 19.31567383 -74.43359375 19.31567383 C-74.43359375 18.65567383 -74.43359375 17.99567383 -74.43359375 17.31567383 C-70.98908638 15.01933558 -68.49547092 14.77550898 -64.43359375 14.31567383 C-64.43359375 13.65567383 -64.43359375 12.99567383 -64.43359375 12.31567383 C-48.85106948 6.31567383 -48.85106948 6.31567383 -40.43359375 6.31567383 C-40.43359375 5.65567383 -40.43359375 4.99567383 -40.43359375 4.31567383 C-38.8504947 4.02273818 -37.2670946 3.73142963 -35.68359375 3.44067383 C-34.801875 3.27825195 -33.92015625 3.11583008 -33.01171875 2.94848633 C-31.8309375 2.7396582 -30.65015625 2.53083008 -29.43359375 2.31567383 C-28.6545166 2.1488208 -27.87543945 1.98196777 -27.07275391 1.81005859 C-18.05795136 0.03711037 -9.15099933 -0.02247789 0 0 Z " fill="#FDE0E8" transform="translate(184.43359375,24.684326171875)"/>
<path d="M0 0 C0.33 0.66 0.66 1.32 1 2 C2.65112265 2.70428418 4.32146707 3.3638008 6 4 C7.90254014 4.9660706 9.79803574 5.94609886 11.6875 6.9375 C16.4253566 9.34747409 20.98443875 11.07746801 26.13671875 12.359375 C28 13 28 13 29 15 C31.3667444 16.06789186 31.3667444 16.06789186 34.1875 17 C35.18007812 17.34675781 36.17265625 17.69351563 37.1953125 18.05078125 C39.31587384 18.76846427 41.43866753 19.47955584 43.5625 20.1875 C46 21 46 21 48 22 C48 22.66 48 23.32 48 24 C48.70125 24.12375 49.4025 24.2475 50.125 24.375 C53.17656387 25.03838345 56.05340938 25.97211955 59 27 C59 27.66 59 28.32 59 29 C60.216875 29.12375 61.43375 29.2475 62.6875 29.375 C66.06479059 29.78891306 68.89756695 30.54573451 72 32 C72 32.66 72 33.32 72 34 C74.64 34.33 77.28 34.66 80 35 C80 35.66 80 36.32 80 37 C80.82177734 37.185625 80.82177734 37.185625 81.66015625 37.375 C88.1667799 39.06778014 93.72300115 41.78812341 99.55688477 45.04296875 C103.61943478 47.30650562 107.69640742 49.23215709 112 51 C112 51.66 112 52.32 112 53 C113.98 53.66 115.96 54.32 118 55 C118 55.66 118 56.32 118 57 C118.825 57.20625 119.65 57.4125 120.5 57.625 C124.89143822 59.35020787 128.54681549 61.77469061 132 65 C132 65.66 132 66.32 132 67 C133.32 67.66 134.64 68.32 136 69 C135.48050781 69.90621094 134.96101562 70.81242187 134.42578125 71.74609375 C134.09054443 72.33237549 133.75530762 72.91865723 133.40991211 73.52270508 C132.67544891 74.80421672 131.93795417 76.08399546 131.19750977 77.36206055 C129.12484772 80.95519068 127.23990313 84.57463041 125.4375 88.3125 C124.296875 90.421875 124.296875 90.421875 123 92 C119.1875 93.0625 119.1875 93.0625 116 93 C115.85714286 84.42857143 115.85714286 84.42857143 117 81 C111.42427299 82.21728545 108.01501597 84.22305409 103.8125 88.125 C98.52789256 93 98.52789256 93 94 93 C95.79526216 86.61684565 100.89517604 81.33954482 106.125 77.4375 C109 76 109 76 111.625 76.1875 C112.40875 76.455625 113.1925 76.72375 114 77 C115.1446875 77.2784375 115.1446875 77.2784375 116.3125 77.5625 C116.869375 77.706875 117.42625 77.85125 118 78 C118 76.02 118 74.04 118 72 C109.99297471 71.02428899 105.04437984 72.3406448 98.453125 76.9921875 C91.46242631 82.71387401 88.04287211 87.96177502 87 97 C96.00674668 97.82295147 100.98247892 96.68010115 108 91 C108.66 90.67 109.32 90.34 110 90 C110.66 91.98 111.32 93.96 112 96 C116.62 96.66 121.24 97.32 126 98 C126.99 96.02 126.99 96.02 128 94 C129.90549712 91.26152842 131.9592697 88.63878494 134 86 C134.721875 85.05125 135.44375 84.1025 136.1875 83.125 C138 81 138 81 141 79 C143.6875 79.375 143.6875 79.375 146 80 C146 80.66 146 81.32 146 82 C146.99 82.33 147.98 82.66 149 83 C150.0625 85.65234375 150.0625 85.65234375 151 88.9375 C152.24657062 93.82965218 152.24657062 93.82965218 156 97 C164.07181851 97.89686872 169.72916855 97.03453814 176.375 92.3125 C176.91125 91.879375 177.4475 91.44625 178 91 C177.80309327 94.54432116 176.90703516 97.00136532 175 100 C172.76661275 101.40821359 170.73108275 102.50075812 168.34765625 103.58203125 C167.65281631 103.91330521 166.95797638 104.24457916 166.24208069 104.58589172 C164.68713295 105.32696967 163.12921979 106.061847 161.56890869 106.79156494 C156.82303435 109.02406194 152.11694833 111.33912773 147.40234375 113.63671875 C145.3446 114.63647731 143.28665486 115.63582148 141.22851562 116.63476562 C140.19509033 117.13661377 139.16166504 117.63846191 138.09692383 118.15551758 C135.97548582 119.18418797 133.85307459 120.21085349 131.72973633 121.2355957 C128.6176868 122.73836704 125.50971617 124.24930478 122.40234375 125.76171875 C121.46059799 126.21391281 120.51885223 126.66610687 119.54856873 127.13200378 C115.46782648 129.12589434 111.64254646 131.13720769 107.97485352 133.82739258 C105 136 105 136 103 136 C102.77030518 135.41371826 102.54061035 134.82743652 102.30395508 134.22338867 C98.68332389 125.99497445 93.04075988 120.43130746 86.6875 114.3125 C85.6688125 113.31037125 84.65122737 112.30712064 83.63476562 111.30273438 C78.82372484 106.57139853 73.92691834 101.96627688 68.80786133 97.56713867 C65.79788497 94.95795053 62.90549827 92.22426422 60 89.5 C54.07992568 83.98132644 48.12887951 78.54275316 41.8515625 73.4296875 C41.02229248 72.75039185 41.02229248 72.75039185 40.17626953 72.05737305 C39.07501968 71.15741486 37.96933186 70.26285497 36.85888672 69.37426758 C35.53552913 68.29336206 34.26271037 67.15117095 33 66 C33 65.34 33 64.68 33 64 C32.4234668 63.74726318 31.84693359 63.49452637 31.25292969 63.23413086 C26.92902307 60.86554092 23.69950115 57.03653281 20.25 53.5625 C19.03437378 52.33841431 19.03437378 52.33841431 17.79418945 51.08959961 C5.75476886 38.80435237 -4.15307522 25.19930895 -4.265625 7.33203125 C-3.97507599 4.78118188 -3.36378853 3.1657346 -2 1 C-1.34 0.67 -0.68 0.34 0 0 Z " fill="#FCFCFC" transform="translate(112,205)"/>
<path d="M0 0 C1.21269562 -0.00012085 2.42539124 -0.0002417 3.67483521 -0.00036621 C82.54948938 0.11098837 82.54948938 0.11098837 105.625 20.375 C107.375 22.3828125 107.375 22.3828125 108.625 24.375 C108.3125 27.125 108.3125 27.125 107.625 29.375 C105.645 29.87 105.645 29.87 103.625 30.375 C103.3775 29.8903125 103.13 29.405625 102.875 28.90625 C96.54782381 18.6245887 82.86104255 14.10943513 71.625 11.375 C70.48289062 11.04886719 69.34078125 10.72273437 68.1640625 10.38671875 C60.99899342 8.3816426 53.89868142 6.99483489 46.4921875 6.265625 C45.63338989 6.18104538 44.77459229 6.09646576 43.88977051 6.00932312 C34.59204749 5.17195608 25.31791859 5.10784492 15.98876953 5.16918945 C13.12653631 5.18749018 10.26462967 5.18969756 7.40234375 5.18945312 C-33.11277947 5.26474351 -74.05074361 9.27981776 -113.375 19.375 C-114.29829102 19.60767578 -115.22158203 19.84035156 -116.17285156 20.08007812 C-147.51320997 28.07803336 -182.81612032 39.93510246 -200.9296875 68.6640625 C-204.74699478 75.82409292 -205.5483612 82.51030788 -203.65234375 90.37109375 C-197.04810709 111.36026693 -180.51419749 126.69462206 -164.25219727 140.74511719 C-161.57579176 143.06891523 -158.97843246 145.46965479 -156.375 147.875 C-153.07547223 150.91468996 -149.76548393 153.93658059 -146.375 156.875 C-142.00563544 160.66659734 -137.75394101 164.58416565 -133.5 168.50390625 C-131.51034226 170.33658295 -129.51001385 172.15419268 -127.5 173.96484375 C-121.49712272 179.38863912 -115.64298724 184.95175201 -109.875 190.625 C-109.19211914 191.28653076 -108.50923828 191.94806152 -107.80566406 192.62963867 C-103.81099752 196.59696491 -100.81120498 200.27885693 -98.375 205.375 C-98.375 206.365 -98.375 207.355 -98.375 208.375 C-97.69179687 207.92511719 -97.00859375 207.47523438 -96.3046875 207.01171875 C-80.04306322 196.63505568 -62.34535682 188.78765971 -44.82983398 180.7902832 C-37.88882538 177.62337354 -37.88882538 177.62337354 -31.18359375 173.99609375 C-28.375 172.375 -28.375 172.375 -26.375 172.375 C-25.385 168.415 -25.385 168.415 -24.375 164.375 C-25.7671875 165.5815625 -25.7671875 165.5815625 -27.1875 166.8125 C-31.84156074 170.84601931 -36.50908926 170.77990084 -42.47265625 170.71484375 C-45.375 170.375 -45.375 170.375 -48.6875 168.3125 C-50.375 165.375 -50.375 165.375 -50.4375 161.9375 C-48.84408716 156.59488048 -45.97996804 151.86497478 -41.54296875 148.36328125 C-36.2525501 145.95161293 -30.07627171 145.91409985 -24.375 146.375 C-21.45779102 147.72254323 -20.42187622 148.83191136 -18.375 151.375 C-16.395 147.415 -16.395 147.415 -14.375 143.375 C-13.055 143.375 -11.735 143.375 -10.375 143.375 C-10.93408108 149.38512161 -12.68133816 154.84904932 -14.53515625 160.58203125 C-15.4709874 163.20812946 -15.4709874 163.20812946 -15.375 165.375 C-14.31539062 164.7975 -13.25578125 164.22 -12.1640625 163.625 C-10.77615942 162.87478212 -9.38813213 162.12479399 -8 161.375 C-7.30132812 160.9934375 -6.60265625 160.611875 -5.8828125 160.21875 C-0.6015625 157.375 -0.6015625 157.375 1.625 157.375 C1.91375 156.6325 2.2025 155.89 2.5 155.125 C3.056875 153.76375 3.056875 153.76375 3.625 152.375 C3.893125 151.6325 4.16125 150.89 4.4375 150.125 C5.625 148.375 5.625 148.375 8.25 147.625 C9.03375 147.5425 9.8175 147.46 10.625 147.375 C11.55923645 150.38531744 11.66949911 151.24150268 10.625 154.375 C11.34945312 153.941875 12.07390625 153.50875 12.8203125 153.0625 C13.78710938 152.505625 14.75390625 151.94875 15.75 151.375 C16.70132813 150.818125 17.65265625 150.26125 18.6328125 149.6875 C21.92254838 148.2444827 24.07231297 148.05294339 27.625 148.375 C28.285 148.705 28.945 149.035 29.625 149.375 C29.1797115 154.64815333 28.54126837 159.39270224 26.625 164.375 C28.23285777 163.78072612 29.83617709 163.17416412 31.4375 162.5625 C32.33082031 162.22605469 33.22414063 161.88960937 34.14453125 161.54296875 C38.22949869 159.61949589 39.86742791 157.12870494 42 153.25 C44.25584663 149.50625453 44.25584663 149.50625453 47.4375 148.375 C48.159375 148.375 48.88125 148.375 49.625 148.375 C49.34140113 149.8141134 49.04778601 151.25125518 48.75 152.6875 C48.50636719 153.88826172 48.50636719 153.88826172 48.2578125 155.11328125 C47.625 157.375 47.625 157.375 45.625 160.375 C45.24000109 162.03049531 44.89706865 163.6972433 44.625 165.375 C53.06413279 163.1734871 58.87060262 159.9374449 65.625 154.375 C65.955 155.365 66.285 156.355 66.625 157.375 C61.17130455 164.36730785 55.4325192 170.29224737 46.31640625 171.7421875 C42.58126389 171.86555 40.76807694 171.47038462 37.625 169.375 C37.295 168.385 36.965 167.395 36.625 166.375 C36.11710938 166.66375 35.60921875 166.9525 35.0859375 167.25 C30.79753544 169.56284606 27.62419599 171.07256223 22.625 170.375 C21.635 169.715 20.645 169.055 19.625 168.375 C19.05735437 162.69854367 19.63143554 159.36427411 22.625 154.375 C15.72893876 157.61018922 10.7344305 161.84951198 5.3984375 167.265625 C2.09313118 169.77951995 -0.28120823 170.11218868 -4.375 170.375 C-4.045 168.395 -3.715 166.415 -3.375 164.375 C-5.79917876 165.7589528 -8.21376114 167.15631542 -10.625 168.5625 C-11.30691406 168.94986328 -11.98882812 169.33722656 -12.69140625 169.73632812 C-13.35527344 170.12626953 -14.01914062 170.51621094 -14.703125 170.91796875 C-15.3105957 171.26883545 -15.91806641 171.61970215 -16.54394531 171.98120117 C-20.72942949 175.16719173 -23.00441661 179.29633386 -25.109375 184.0234375 C-25.59704346 185.10439697 -26.08471191 186.18535645 -26.5871582 187.29907227 C-27.094646 188.43787842 -27.60213379 189.57668457 -28.125 190.75 C-45.30486486 228.55928155 -45.30486486 228.55928155 -59.5 234.125 C-69.92566641 237.30334386 -81.42703273 235.66002218 -91.17578125 231.05078125 C-96.28511226 228.16684775 -100.0627643 225.2329457 -103.375 220.375 C-103.375 219.715 -103.375 219.055 -103.375 218.375 C-104.25285156 218.5915625 -104.25285156 218.5915625 -105.1484375 218.8125 C-121.53545494 222.35563891 -137.24583552 220.14746159 -153.375 216.375 C-154.08269531 216.2095166 -154.79039062 216.0440332 -155.51953125 215.87353516 C-163.87117019 213.85357515 -172.5964114 211.59812844 -178.5 205 C-179.79399491 201.11801528 -179.70394665 199.29539263 -178.375 195.375 C-171.12990287 186.98263152 -161.75396689 182.21800582 -150.8125 181.1171875 C-143.98628962 180.82629785 -137.32471334 181.8183448 -131.375 185.375 C-130.5703125 187.515625 -130.5703125 187.515625 -130.375 189.375 C-133.44187255 188.93687535 -136.17315592 188.45479882 -139.0625 187.3125 C-146.37856279 185.24191619 -153.42173729 185.57523451 -160.2265625 189.0390625 C-163.96469282 191.3634999 -167.68750979 193.85270357 -170.375 197.375 C-171.07816355 199.85599412 -171.07816355 199.85599412 -170.375 202.375 C-162.48385597 210.45402842 -147.99686307 211.52560345 -137.375 213.375 C-136.22837891 213.57609375 -136.22837891 213.57609375 -135.05859375 213.78125 C-129.76148279 214.52761397 -124.40302122 214.50601727 -119.0625 214.5625 C-117.87756958 214.58219849 -117.87756958 214.58219849 -116.66870117 214.60229492 C-111.24478767 214.62931206 -111.24478767 214.62931206 -106.375 212.375 C-105.99423814 207.49560724 -106.58237431 205.33876805 -109.75 201.625 C-118.88032656 191.05762682 -128.95898465 181.08580781 -139.53295898 171.96972656 C-142.20026179 169.66053877 -144.78365618 167.26917636 -147.375 164.875 C-151.3353961 161.22736473 -155.33293582 157.63168947 -159.3984375 154.1015625 C-163.43501214 150.57554276 -167.40218732 146.97247428 -171.375 143.375 C-172.303125 142.54097656 -173.23125 141.70695313 -174.1875 140.84765625 C-177.27635389 138.05043617 -180.33762417 135.22790883 -183.375 132.375 C-183.95362793 131.83182129 -184.53225586 131.28864258 -185.12841797 130.72900391 C-198.83853131 117.74574537 -211.96737 102.83171553 -212.875 83 C-212.73195578 70.46412498 -205.94570523 60.71886782 -197.3515625 52.171875 C-181.15689639 36.74939088 -160.52357734 27.11157954 -139.375 20.375 C-138.48296875 20.08818359 -137.5909375 19.80136719 -136.671875 19.50585938 C-114.75518422 12.55851057 -92.41658821 7.93090078 -69.6875 4.625 C-69.00456879 4.52394958 -68.32163757 4.42289917 -67.61801147 4.31878662 C-45.16393128 1.03602834 -22.6750476 -0.03506662 0 0 Z " fill="#0D0B0B" transform="translate(313.375,132.625)"/>
<path d="M0 0 C10.78731011 -0.02313567 21.57461436 -0.04092136 32.3619442 -0.05181217 C37.3705368 -0.05703831 42.37911246 -0.0641311 47.38769531 -0.07543945 C52.21817822 -0.08627786 57.04864482 -0.09227887 61.87913895 -0.09487724 C63.72518801 -0.09672976 65.57123615 -0.10034709 67.41727829 -0.10573006 C69.99614161 -0.11295312 72.57493685 -0.1139904 75.15380859 -0.11352539 C76.30718971 -0.1189183 76.30718971 -0.1189183 77.48387146 -0.12442017 C82.77189568 -0.11405216 82.77189568 -0.11405216 85 1 C85 2.65 85 4.3 85 6 C83.68 6.33 82.36 6.66 81 7 C81 7.66 81 8.32 81 9 C76.61538462 12 76.61538462 12 74 12 C74 12.66 74 13.32 74 14 C73.37609375 14.52078125 72.7521875 15.0415625 72.109375 15.578125 C69.11688207 19.01395021 68.87284002 22.33149965 68.25 26.75 C68.12496094 27.54277344 67.99992187 28.33554687 67.87109375 29.15234375 C67.56614348 31.0993339 67.28108768 33.04942187 67 35 C66.34 35 65.68 35 65 35 C64.67 65.03 64.34 95.06 64 126 C61.36 124.02 58.72 122.04 56 120 C52.47926299 118.19990742 52.47926299 118.19990742 48.875 116.875 C48.23828369 116.62983643 47.60156738 116.38467285 46.94555664 116.13208008 C38.50470387 112.95570592 29.91035709 110.43710433 21 109 C20.98786972 107.79089211 20.98786972 107.79089211 20.97549438 106.55735779 C20.89697858 98.89478774 20.80952568 91.23239277 20.71247292 83.57003689 C20.66290178 79.63241917 20.61657469 75.69482334 20.578125 71.75708008 C20.54076914 67.94437757 20.49428694 64.13187813 20.44193649 60.3193531 C20.42365542 58.87763152 20.40845494 57.43586688 20.39665604 55.99407768 C20.28381637 42.66007671 20.15218233 28.16017288 14 16 C13.34 15.67 12.68 15.34 12 15 C12 14.34 12 13.68 12 13 C11.34 13 10.68 13 10 13 C10 12.34 10 11.68 10 11 C8.68 10.67 7.36 10.34 6 10 C6 9.34 6 8.68 6 8 C4.02 8 2.04 8 0 8 C0 5.36 0 2.72 0 0 Z " fill="#FDE0E8" transform="translate(356,29)"/>
<path d="M0 0 C1.98 0 3.96 0 6 0 C6.30703857 0.71542969 6.61407715 1.43085938 6.93041992 2.16796875 C8.34273351 5.44824941 9.76502722 8.72411276 11.1875 12 C11.91163086 13.68802734 11.91163086 13.68802734 12.65039062 15.41015625 C14.80121194 20.34694074 16.92704023 25.10101384 19.86328125 29.625 C22 33 22 33 22 36 C22.66 36 23.32 36 24 36 C26.04169485 38.90548882 27 40.40142046 27 44 C27.66 44 28.32 44 29 44 C29 44.66 29 45.32 29 46 C30.485 46.495 30.485 46.495 32 47 C33.01704034 48.74803809 34.03155598 50.50048047 34.9375 52.30859375 C36.04265597 54.32419272 36.04265597 54.32419272 39 56 C39 56.66 39 57.32 39 58 C39.66 58 40.32 58 41 58 C41.495 59.98 41.495 59.98 42 62 C42.66 62 43.32 62 44 62 C46.51086567 64.3751432 48.87341188 66.86637921 51.25 69.375 C56.24792539 74.14574696 61.11935887 78.46436186 67.6875 80.8125 C73.34429546 83.04544557 75.44359684 87.74684214 78 93 C78.58007812 92.02546875 78.58007812 92.02546875 79.171875 91.03125 C79.69265625 90.1959375 80.2134375 89.360625 80.75 88.5 C81.51570313 87.24703125 81.51570313 87.24703125 82.296875 85.96875 C82.85890625 85.3190625 83.4209375 84.669375 84 84 C85.32 84 86.64 84 88 84 C88 86.64 88 89.28 88 92 C91.3 92.99 94.6 93.98 98 95 C98.33 93.35 98.66 91.7 99 90 C99.95394836 87.97762948 100.94535351 85.9717304 102 84 C103.65 84 105.3 84 107 84 C107.43570313 85.07121094 107.87140625 86.14242187 108.3203125 87.24609375 C108.92065054 88.64375575 109.52228092 90.04086314 110.125 91.4375 C110.40859375 92.14455078 110.6921875 92.85160156 110.984375 93.58007812 C111.95321428 95.91439262 111.95321428 95.91439262 114 99 C115.98 99.33 117.96 99.66 120 100 C120.33 94.39 120.66 88.78 121 83 C129.94736842 82.64210526 129.94736842 82.64210526 134.125 84.0625 C136 86 136 86 136.4375 89.5 C136 93 136 93 134 96 C137.34483579 99.75863873 137.34483579 99.75863873 145 102 C145 96.06 145 90.12 145 84 C146.32 84 147.64 84 149 84 C149.33 85.98 149.66 87.96 150 90 C150.45375 89.34 150.9075 88.68 151.375 88 C151.91125 87.34 152.4475 86.68 153 86 C153.66 86 154.32 86 155 86 C155 85.34 155 84.68 155 84 C156.65 84 158.3 84 160 84 C159.154375 84.9075 158.30875 85.815 157.4375 86.75 C155.37800856 89.11399368 155.37800856 89.11399368 155 92.125 C155.33 92.74375 155.66 93.3625 156 94 C156.33 94.763125 156.66 95.52625 157 96.3125 C158.84406227 98.23096478 158.84406227 98.23096478 161.19921875 98.02734375 C163.47775565 97.7733781 165.7412575 97.39282478 168 97 C168 92.71 168 88.42 168 84 C172.29 84 176.58 84 181 84 C181 84.99 181 85.98 181 87 C178.03 87 175.06 87 172 87 C172 88.32 172 89.64 172 91 C175.96 91 179.92 91 184 91 C184 90.34 184 89.68 184 89 C185.32 88.67 186.64 88.34 188 88 C188 86.35 188 84.7 188 83 C192.95 83 197.9 83 203 83 C203 84.32 203 85.64 203 87 C201.35 87 199.7 87 198 87 C198 91.62 198 96.24 198 101 C196.35 101 194.7 101 193 101 C193 99.68 193 98.36 193 97 C191.68 97 190.36 97 189 97 C189 97.66 189 98.32 189 99 C186.36 99.66 183.72 100.32 181 101 C181 101.66 181 102.32 181 103 C178.1433811 103.71415472 175.28670156 104.42805208 172.4296875 105.140625 C170.24614827 105.68775328 168.06372022 106.23934972 165.8828125 106.796875 C164.89023438 107.04953125 163.89765625 107.3021875 162.875 107.5625 C161.98554688 107.79066406 161.09609375 108.01882813 160.1796875 108.25390625 C159.13039062 108.50011719 158.08109375 108.74632812 157 109 C156.37061523 109.17281494 155.74123047 109.34562988 155.09277344 109.52368164 C146.87408714 111.52821744 138.55106551 111.33669016 130.14453125 111.31567383 C127.53341843 111.31254011 124.92347129 111.3359382 122.3125 111.36132812 C110.90105246 111.4040103 100.18634685 110.19256322 89 108 C87.17528207 107.67899581 85.34991564 107.36161371 83.5234375 107.05078125 C82.1404599 106.80561704 80.75763449 106.55959191 79.375 106.3125 C78.64539063 106.18294922 77.91578125 106.05339844 77.1640625 105.91992188 C75.44255766 105.61412825 73.72125248 105.30721089 72 105 C72 104.01 72 103.02 72 102 C71.67 102.66 71.34 103.32 71 104 C57.98233542 101.20938688 45.46157672 98.08956688 34 91.015625 C31.69184342 89.84351424 29.54611236 89.40667072 27 89 C27 88.34 27 87.68 27 87 C25.92105469 86.82597656 25.92105469 86.82597656 24.8203125 86.6484375 C21.88719538 85.97406431 19.55746823 84.97853901 16.875 83.625 C16.02679688 83.20476562 15.17859375 82.78453125 14.3046875 82.3515625 C12.13310299 81.07805701 10.7380265 79.78684747 9 78 C7.96875 77.505 6.9375 77.01 5.875 76.5 C3 75 3 75 2 72 C1.85799441 69.45799008 1.76659634 66.93842697 1.71875 64.39453125 C1.70034058 63.63766525 1.68193115 62.88079926 1.66296387 62.10099792 C1.60428213 59.6715772 1.55161622 57.24208037 1.5 54.8125 C1.43089866 51.65224402 1.3584021 48.49210124 1.28125 45.33203125 C1.26219101 44.54941925 1.24313202 43.76680725 1.22349548 42.96047974 C1.08428461 37.80115824 0.82274902 32.66077016 0.47265625 27.51171875 C0.05692567 21.32705143 -0.1258319 15.19678328 -0.0625 9 C-0.05798828 8.11828125 -0.05347656 7.2365625 -0.04882812 6.328125 C-0.03736396 4.21871836 -0.01945096 2.10934811 0 0 Z " fill="#FDE0E8" transform="translate(53,292)"/>
<path d="M0 0 C1.32 0 2.64 0 4 0 C5.703125 2.1875 5.703125 2.1875 7.25 5 C8.03117188 6.3921875 8.03117188 6.3921875 8.828125 7.8125 C9.21484375 8.534375 9.6015625 9.25625 10 10 C10.38671875 9.3503125 10.7734375 8.700625 11.171875 8.03125 C11.95304688 6.77828125 11.95304688 6.77828125 12.75 5.5 C13.26046875 4.6646875 13.7709375 3.829375 14.296875 2.96875 C14.85890625 2.3190625 15.4209375 1.669375 16 1 C17.32 1 18.64 1 20 1 C20 3.64 20 6.28 20 9 C23.3 9.99 26.6 10.98 30 12 C30.33 10.35 30.66 8.7 31 7 C31.95394836 4.97762948 32.94535351 2.9717304 34 1 C35.65 1 37.3 1 39 1 C39.43570313 2.07121094 39.87140625 3.14242188 40.3203125 4.24609375 C40.92065054 5.64375575 41.52228092 7.04086314 42.125 8.4375 C42.40859375 9.14455078 42.6921875 9.85160156 42.984375 10.58007812 C43.95321428 12.91439262 43.95321428 12.91439262 46 16 C47.98 16.33 49.96 16.66 52 17 C52.33 11.39 52.66 5.78 53 0 C61.94736842 -0.35789474 61.94736842 -0.35789474 66.125 1.0625 C68 3 68 3 68.4375 6.5 C68 10 68 10 66 13 C69.34483579 16.75863873 69.34483579 16.75863873 77 19 C77 13.06 77 7.12 77 1 C78.32 1 79.64 1 81 1 C81.495 3.97 81.495 3.97 82 7 C82.45375 6.34 82.9075 5.68 83.375 5 C83.91125 4.34 84.4475 3.68 85 3 C85.66 3 86.32 3 87 3 C87 2.34 87 1.68 87 1 C88.65 1 90.3 1 92 1 C91.154375 1.9075 90.30875 2.815 89.4375 3.75 C87.37800856 6.11399368 87.37800856 6.11399368 87 9.125 C87.495 10.053125 87.495 10.053125 88 11 C88.495 12.1446875 88.495 12.1446875 89 13.3125 C90.84406227 15.23096478 90.84406227 15.23096478 93.19921875 15.02734375 C95.47775565 14.7733781 97.7412575 14.39282478 100 14 C100 9.71 100 5.42 100 1 C104.29 1 108.58 1 113 1 C113 1.99 113 2.98 113 4 C110.03 4 107.06 4 104 4 C104 5.32 104 6.64 104 8 C107.96 8 111.92 8 116 8 C116 7.34 116 6.68 116 6 C117.32 5.67 118.64 5.34 120 5 C120 3.35 120 1.7 120 0 C124.95 0 129.9 0 135 0 C135 1.32 135 2.64 135 4 C133.35 4 131.7 4 130 4 C130 8.62 130 13.24 130 18 C128.35 18 126.7 18 125 18 C125 16.68 125 15.36 125 14 C123.68 14 122.36 14 121 14 C121 14.66 121 15.32 121 16 C118.36 16.66 115.72 17.32 113 18 C113 18.66 113 19.32 113 20 C110.1433811 20.71415472 107.28670156 21.42805208 104.4296875 22.140625 C102.24614827 22.68775328 100.06372022 23.23934972 97.8828125 23.796875 C96.89023438 24.04953125 95.89765625 24.3021875 94.875 24.5625 C93.54082031 24.90474609 93.54082031 24.90474609 92.1796875 25.25390625 C91.13039063 25.50011719 90.08109375 25.74632812 89 26 C88.37061523 26.17281494 87.74123047 26.34562988 87.09277344 26.52368164 C78.87408714 28.52821744 70.55106551 28.33669016 62.14453125 28.31567383 C59.53341843 28.31254011 56.92347129 28.3359382 54.3125 28.36132812 C42.90105246 28.4040103 32.18634685 27.19256322 21 25 C19.17528207 24.67899581 17.34991564 24.36161371 15.5234375 24.05078125 C14.1404599 23.80561704 12.75763449 23.55959191 11.375 23.3125 C10.28058594 23.11817383 10.28058594 23.11817383 9.1640625 22.91992188 C7.44255766 22.61412825 5.72125248 22.30721089 4 22 C4.33 20.68 4.66 19.36 5 18 C3.35 18 1.7 18 0 18 C0 12.06 0 6.12 0 0 Z " fill="#FAE1E9" transform="translate(121,375)"/>
<path d="M0 0 C1.21269562 -0.00012085 2.42539124 -0.0002417 3.67483521 -0.00036621 C82.54948938 0.11098837 82.54948938 0.11098837 105.625 20.375 C107.375 22.3828125 107.375 22.3828125 108.625 24.375 C108.3125 27.125 108.3125 27.125 107.625 29.375 C105.645 29.87 105.645 29.87 103.625 30.375 C103.3775 29.8903125 103.13 29.405625 102.875 28.90625 C96.54782381 18.6245887 82.86104255 14.10943513 71.625 11.375 C70.48289062 11.04886719 69.34078125 10.72273437 68.1640625 10.38671875 C60.99899342 8.3816426 53.89868142 6.99483489 46.4921875 6.265625 C45.63338989 6.18104538 44.77459229 6.09646576 43.88977051 6.00932312 C34.59204749 5.17195608 25.31791859 5.10784492 15.98876953 5.16918945 C13.12653631 5.18749018 10.26462967 5.18969756 7.40234375 5.18945312 C-33.11277947 5.26474351 -74.05074361 9.27981776 -113.375 19.375 C-114.29829102 19.60767578 -115.22158203 19.84035156 -116.17285156 20.08007812 C-147.51320997 28.07803336 -182.81612032 39.93510246 -200.9296875 68.6640625 C-204.74699478 75.82409292 -205.5483612 82.51030788 -203.65234375 90.37109375 C-200.02022546 101.91446563 -194.18235613 110.22641633 -186.375 119.375 C-185.35258064 120.60284773 -184.33138122 121.83171471 -183.3125 123.0625 C-182.3534375 124.2071875 -182.3534375 124.2071875 -181.375 125.375 C-182.365 125.87 -182.365 125.87 -183.375 126.375 C-183.375 127.365 -183.375 128.355 -183.375 129.375 C-190.52961639 128.39267281 -195.61686765 120.59900969 -199.8515625 115.2421875 C-208.69231442 102.97157865 -214.18641261 90.67137311 -212.375 75.375 C-205.48368491 54.22026531 -186.06263827 41.30391355 -167.22729492 31.63598633 C-158.1672679 27.12684508 -149.01171178 23.44463794 -139.375 20.375 C-138.48296875 20.08818359 -137.5909375 19.80136719 -136.671875 19.50585938 C-114.75518422 12.55851057 -92.41658821 7.93090078 -69.6875 4.625 C-69.00456879 4.52394958 -68.32163757 4.42289917 -67.61801147 4.31878662 C-45.16393128 1.03602834 -22.6750476 -0.03506662 0 0 Z " fill="#0F0E0E" transform="translate(313.375,132.625)"/>
<path d="M0 0 C-0.95335855 6.02980104 -3.64037999 11.23637124 -6.19018555 16.73583984 C-7.04777195 18.59310366 -7.88651143 20.45809686 -8.72460938 22.32421875 C-14.05006853 33.98111966 -20.3970001 46.15269235 -33 51 C-43.06981731 52.48439538 -53.14896998 49.2389282 -61.2578125 43.40234375 C-64.93062596 40.44597596 -64.93062596 40.44597596 -65.4375 37.1875 C-64.97446398 33.81395186 -64.25677376 32.49356583 -61.7175293 30.2644043 C-53.97378479 24.56364342 -45.14884897 20.43274056 -36.5625 16.1875 C-35.32686645 15.57413222 -34.09127115 14.96068739 -32.85571289 14.34716797 C-29.24154304 12.55574513 -25.62166867 10.77621619 -22 9 C-20.97745117 8.49839355 -19.95490234 7.99678711 -18.90136719 7.47998047 C-16.25107646 6.18574759 -13.59609874 4.90206421 -10.9375 3.625 C-10.16543213 3.25012451 -9.39336426 2.87524902 -8.59790039 2.48901367 C-3.35398613 0 -3.35398613 0 0 0 Z " fill="#FAFAFA" transform="translate(282,313)"/>
<path d="M0 0 C4.50683 12.76386889 -3.49097521 29.57270784 -8.84375 40.97265625 C-13.94527049 51.53292409 -13.94527049 51.53292409 -17 55 C-17.66 55 -18.32 55 -19 55 C-19.226875 55.515625 -19.45375 56.03125 -19.6875 56.5625 C-22.63998894 62.04569375 -26.34283216 66.84630977 -31 71 C-31.66 71 -32.32 71 -33 71 C-33.33 71.99 -33.66 72.98 -34 74 C-36.66083969 75.99396257 -39.61242325 78 -43 78 C-43 78.66 -43 79.32 -43 80 C-43.66 80 -44.32 80 -45 80 C-45 80.66 -45 81.32 -45 82 C-51.75 86 -51.75 86 -54 86 C-54 84.02 -54 82.04 -54 80 C-52.35 80 -50.7 80 -49 80 C-49 78.68 -49 77.36 -49 76 C-51.64 76 -54.28 76 -57 76 C-55.77065985 72.31197956 -54.06140622 71.27643027 -51 69 C-51.66 68.34 -52.32 67.68 -53 67 C-52.11248047 66.65388672 -52.11248047 66.65388672 -51.20703125 66.30078125 C-39.08370826 61.29719117 -33.16787588 51.02518399 -27.625 39.625 C-27.15094727 38.66980469 -26.67689453 37.71460938 -26.18847656 36.73046875 C-23.92407284 32.12521283 -21.75190977 27.50240023 -19.7578125 22.7734375 C-19.41540527 21.96567871 -19.07299805 21.15791992 -18.72021484 20.32568359 C-18.09553595 18.82827768 -17.4876549 17.32369577 -16.90087891 15.81103516 C-13.60202562 7.84965167 -7.39928785 3.92615273 0 0 Z " fill="#FADFE6" transform="translate(305,299)"/>
<path d="M0 0 C-0.33 1.98 -0.66 3.96 -1 6 C-0.27554687 5.566875 0.44890625 5.13375 1.1953125 4.6875 C2.16210938 4.130625 3.12890625 3.57375 4.125 3 C5.07632813 2.443125 6.02765625 1.88625 7.0078125 1.3125 C10.29754838 -0.1305173 12.44731297 -0.32205661 16 0 C16.66 0.33 17.32 0.66 18 1 C17.5547115 6.27315333 16.91626837 11.01770224 15 16 C16.60785777 15.40572612 18.21117709 14.79916412 19.8125 14.1875 C20.70582031 13.85105469 21.59914063 13.51460938 22.51953125 13.16796875 C26.60449869 11.24449589 28.24242791 8.75370494 30.375 4.875 C32.63084663 1.13125453 32.63084663 1.13125453 35.8125 0 C36.534375 0 37.25625 0 38 0 C37.71640113 1.4391134 37.42278601 2.87625518 37.125 4.3125 C36.96257812 5.11300781 36.80015625 5.91351563 36.6328125 6.73828125 C36 9 36 9 34 12 C33.61500109 13.65549531 33.27206865 15.3222433 33 17 C41.43913279 14.7984871 47.24560262 11.5624449 54 6 C54.495 7.485 54.495 7.485 55 9 C49.54630455 15.99230785 43.8075192 21.91724737 34.69140625 23.3671875 C30.95626389 23.49055 29.14307694 23.09538462 26 21 C25.505 19.515 25.505 19.515 25 18 C24.23816406 18.433125 24.23816406 18.433125 23.4609375 18.875 C19.17253544 21.18784606 15.99919599 22.69756223 11 22 C10.01 21.34 9.02 20.68 8 20 C7.43235437 14.32354367 8.00643554 10.98927411 11 6 C4.10393876 9.23518922 -0.8905695 13.47451198 -6.2265625 18.890625 C-9.53186882 21.40451995 -11.90620823 21.73718868 -16 22 C-15.67 20.02 -15.34 18.04 -15 16 C-19.95 18.97 -19.95 18.97 -25 22 C-25.99 21.34 -26.98 20.68 -28 20 C-27.34 20 -26.68 20 -26 20 C-26.33 19.01 -26.66 18.02 -27 17 C-24.54429825 15.66161267 -22.08570084 14.32913768 -19.625 13 C-18.92632812 12.6184375 -18.22765625 12.236875 -17.5078125 11.84375 C-12.2265625 9 -12.2265625 9 -10 9 C-9.566875 7.88625 -9.566875 7.88625 -9.125 6.75 C-5.66801619 -1.70040486 -5.66801619 -1.70040486 0 0 Z " fill="#0E0D0D" transform="translate(325,281)"/>
<path d="M0 0 C2.0625 0.4375 2.0625 0.4375 4 1 C4 1.99 4 2.98 4 4 C4.99 3.67 5.98 3.34 7 3 C11.10560796 1.81859036 14.74144291 1.77972981 19 2 C20 3 20 3 20.1875 6.4375 C20 10 20 10 18 12 C17.01 12 16.02 12 15 12 C15 10.02 15 8.04 15 6 C6.09097456 9.6490126 0.33484072 13.27055439 -4.08984375 22.19921875 C-5.54751845 24.73796526 -6.6050124 26.28992583 -9 28 C-13.80837389 28.49836221 -18.29247822 28.07428061 -23 27 C-25.1385485 24.8614515 -25.42655063 23.86724686 -26 21 C-26.55429688 21.42152344 -27.10859375 21.84304688 -27.6796875 22.27734375 C-28.40414062 22.82519531 -29.12859375 23.37304688 -29.875 23.9375 C-30.59429687 24.48277344 -31.31359375 25.02804687 -32.0546875 25.58984375 C-35.23078616 27.89219639 -37.11296086 28.13629953 -41 28.125 C-41.886875 28.12757813 -42.77375 28.13015625 -43.6875 28.1328125 C-46 28 -46 28 -48 27 C-48.75764876 21.06508472 -47.25542935 17.9467546 -43.7734375 13.140625 C-41.14431 9.9671407 -38.33449868 7.41109904 -35 5 C-34.44441406 4.58621094 -33.88882813 4.17242187 -33.31640625 3.74609375 C-28.65667919 0.65754487 -24.39609736 0.32960909 -19 1 C-18.34 1.33 -17.68 1.66 -17 2 C-17 3.98 -17 5.96 -17 8 C-17.58007812 7.88140625 -18.16015625 7.7628125 -18.7578125 7.640625 C-22.8597603 6.96373592 -25.27404394 6.66606021 -29.125 8.4375 C-33.90006695 12.69353794 -38.32398357 17.12325805 -41 23 C-34.7737789 20.96971051 -31.09761447 17.50762442 -26.52734375 12.86328125 C-24 11 -24 11 -18 11 C-18.33 14.96 -18.66 18.92 -19 23 C-15.535 22.505 -15.535 22.505 -12 22 C-11.76410156 21.34515625 -11.52820313 20.6903125 -11.28515625 20.015625 C-9.61282968 16.09150307 -7.54582515 12.45372444 -5.4375 8.75 C-5.02564453 8.0178125 -4.61378906 7.285625 -4.18945312 6.53125 C-1.13862607 1.13862607 -1.13862607 1.13862607 0 0 Z " fill="#0C0B0C" transform="translate(247,275)"/>
<path d="M0 0 C1.32 0 2.64 0 4 0 C5.703125 2.1875 5.703125 2.1875 7.25 5 C8.03117188 6.3921875 8.03117188 6.3921875 8.828125 7.8125 C9.21484375 8.534375 9.6015625 9.25625 10 10 C10.38671875 9.3503125 10.7734375 8.700625 11.171875 8.03125 C11.95304688 6.77828125 11.95304688 6.77828125 12.75 5.5 C13.26046875 4.6646875 13.7709375 3.829375 14.296875 2.96875 C14.85890625 2.3190625 15.4209375 1.669375 16 1 C17.32 1 18.64 1 20 1 C20 3.64 20 6.28 20 9 C23.3 9.99 26.6 10.98 30 12 C30.33 10.35 30.66 8.7 31 7 C31.95394836 4.97762948 32.94535351 2.9717304 34 1 C35.65 1 37.3 1 39 1 C40.17133058 3.45620851 41.33721722 5.91474917 42.5 8.375 C42.83386719 9.07367188 43.16773438 9.77234375 43.51171875 10.4921875 C46 15.7734375 46 15.7734375 46 18 C44.68 18 43.36 18 42 18 C41.505 16.02 41.505 16.02 41 14 C38.03 14 35.06 14 32 14 C31.67 15.32 31.34 16.64 31 18 C30.01 18.33 29.02 18.66 28 19 C28.33 20.32 28.66 21.64 29 23 C25.02689934 25.64873377 22.46792174 24.73014013 18 24 C15.50041496 23.64291642 13.00038764 23.2889195 10.5 22.9375 C8.33323449 22.62568606 6.16653419 22.31341716 4 22 C4.33 20.68 4.66 19.36 5 18 C3.35 18 1.7 18 0 18 C0 12.06 0 6.12 0 0 Z " fill="#FAE2E9" transform="translate(121,375)"/>
<path d="M0 0 C0.8046875 2.140625 0.8046875 2.140625 1 4 C-2.06687255 3.56187535 -4.79815592 3.07979882 -7.6875 1.9375 C-15.00356279 -0.13308381 -22.04673729 0.20023451 -28.8515625 3.6640625 C-32.58969282 5.9884999 -36.31250979 8.47770357 -39 12 C-39.70316355 14.48099412 -39.70316355 14.48099412 -39 17 C-26.31033087 29.99180411 2.11290436 28.88354751 19 30 C19 31.32 19 32.64 19 34 C8.05791255 39.47104372 -10.8245238 33.61383997 -22 31 C-23.06154297 30.7517749 -23.06154297 30.7517749 -24.14453125 30.49853516 C-32.49617019 28.47857515 -41.2214114 26.22312844 -47.125 19.625 C-48.41899491 15.74301528 -48.32894665 13.92039263 -47 10 C-35.71521491 -3.07174672 -15.65872163 -9.36056422 0 0 Z " fill="#121212" transform="translate(182,318)"/>
<path d="M0 0 C4.0357356 0.38072977 5.55195391 1.38956884 8.3125 4.3125 C9.25 6.4375 9.25 6.4375 9.3125 8.3125 C8.6525 8.9725 7.9925 9.6325 7.3125 10.3125 C7.209375 9.69375 7.10625 9.075 7 8.4375 C6.43724627 5.94723516 6.43724627 5.94723516 3.3125 4.3125 C2.62153529 8.29649958 2.62153529 8.29649958 2.3125 12.3125 C4.7875 12.8075 4.7875 12.8075 7.3125 13.3125 C5.90377675 16.67737781 4.31594528 18.36959457 1.375 20.5 C0.68535156 21.00917969 -0.00429688 21.51835937 -0.71484375 22.04296875 C-5.79556785 25.31274168 -11.87130488 24.99353496 -17.6875 24.3125 C-21 22.25 -21 22.25 -22.6875 19.3125 C-22.78658236 13.8629702 -21.0576611 10.50243002 -17.6875 6.3125 C-11.92702266 0.42110273 -7.66410383 0.64950032 0 0 Z " fill="#110E0E" transform="translate(285.6875,278.6875)"/>
<path d="M0 0 C4.95 0 9.9 0 15 0 C15 1.32 15 2.64 15 4 C13.35 4 11.7 4 10 4 C10 8.62 10 13.24 10 18 C8.35 18 6.7 18 5 18 C5 16.68 5 15.36 5 14 C3.68 14 2.36 14 1 14 C1 14.66 1 15.32 1 16 C-3.70441514 17.86124836 -7.88033578 18.24983899 -12.875 18.125 C-15.22625 18.08375 -17.5775 18.0425 -20 18 C-20 12.39 -20 6.78 -20 1 C-15.71 1 -11.42 1 -7 1 C-7 1.99 -7 2.98 -7 4 C-9.97 4 -12.94 4 -16 4 C-16 5.32 -16 6.64 -16 8 C-12.04 8 -8.08 8 -4 8 C-4 7.34 -4 6.68 -4 6 C-2.68 5.67 -1.36 5.34 0 5 C0 3.35 0 1.7 0 0 Z " fill="#FAE1EA" transform="translate(241,375)"/>
<path d="M0 0 C1.32 0 2.64 0 4 0 C4.33 1.98 4.66 3.96 5 6 C5.45375 5.34 5.9075 4.68 6.375 4 C6.91125 3.34 7.4475 2.68 8 2 C8.66 2 9.32 2 10 2 C10 1.34 10 0.68 10 0 C11.65 0 13.3 0 15 0 C14.154375 0.9075 13.30875 1.815 12.4375 2.75 C10.37800856 5.11399368 10.37800856 5.11399368 10 8.125 C10.33 8.74375 10.66 9.3625 11 10 C11.33 10.763125 11.66 11.52625 12 12.3125 C13.84406227 14.23096478 13.84406227 14.23096478 16.19921875 14.02734375 C18.49078678 13.77192565 20.7364093 13.43658353 23 13 C23 14.32 23 15.64 23 17 C27.29 17 31.58 17 36 17 C36 17.66 36 18.32 36 19 C33.14736238 19.7131594 30.29463772 20.42593736 27.44140625 21.13671875 C25.21818134 21.69441762 22.99667652 22.25903988 20.77734375 22.83203125 C19.75769531 23.09371094 18.73804688 23.35539062 17.6875 23.625 C16.76324219 23.86476563 15.83898437 24.10453125 14.88671875 24.3515625 C8.22316861 25.84838161 1.85447904 26.12964504 -4.9375 26.0625 C-5.81212891 26.05798828 -6.68675781 26.05347656 -7.58789062 26.04882812 C-9.72529047 26.03714834 -11.86265463 26.01921689 -14 26 C-14 25.67 -14 25.34 -14 25 C-12.741875 24.731875 -11.48375 24.46375 -10.1875 24.1875 C-6.85792352 23.37412367 -5.31853231 22.55038555 -3 20 C0.50935186 20 3.56484998 20.37542727 7 21 C7 20.34 7 19.68 7 19 C7.99 18.67 8.98 18.34 10 18 C9.21869929 15.50447516 9.21869929 15.50447516 8 13 C7.01 12.67 6.02 12.34 5 12 C4.67 13.65 4.34 15.3 4 17 C2.68 17 1.36 17 0 17 C0 11.39 0 5.78 0 0 Z " fill="#F9E2E9" transform="translate(198,376)"/>
<path d="M0 0 C6.3948223 -0.59211318 9.89273958 0.73157427 15.4921875 3.75390625 C21.6008188 6.78919189 29.23657796 8.17170776 36 7 C40.14972987 5.25308711 43.80907532 3.19092468 47 0 C50.125 0.375 50.125 0.375 53 1 C51.47661994 5.26546416 48.86637861 6.82076842 45 9 C34.41150436 13.92731975 22.78452642 12.91373943 12 9 C7.15948234 6.6187776 3.02582988 4.53874482 0 0 Z " fill="#141313" transform="translate(213,356)"/>
<path d="M0 0 C8.94736842 -0.35789474 8.94736842 -0.35789474 13.125 1.0625 C15 3 15 3 15.4375 6.5 C15 10 15 10 13 13 C13.80161791 15.67145537 13.80161791 15.67145537 15 18 C13.68 18 12.36 18 11 18 C9.97971135 16.68212715 8.98028616 15.34789347 8 14 C5.90584196 13.20376178 5.90584196 13.20376178 4 13 C4 14.65 4 16.3 4 18 C2.68 18 1.36 18 0 18 C0 12.06 0 6.12 0 0 Z " fill="#2E2E2E" transform="translate(174,375)"/>
<path d="M0 0 C1.32 0 2.64 0 4 0 C5.703125 2.1875 5.703125 2.1875 7.25 5 C8.03117188 6.3921875 8.03117188 6.3921875 8.828125 7.8125 C9.21484375 8.534375 9.6015625 9.25625 10 10 C10.38671875 9.3503125 10.7734375 8.700625 11.171875 8.03125 C11.95304688 6.77828125 11.95304688 6.77828125 12.75 5.5 C13.26046875 4.6646875 13.7709375 3.829375 14.296875 2.96875 C14.85890625 2.3190625 15.4209375 1.669375 16 1 C17.32 1 18.64 1 20 1 C20 6.61 20 12.22 20 18 C18.68 18 17.36 18 16 18 C15.67 15.36 15.34 12.72 15 10 C14.01 11.98 13.02 13.96 12 16 C10.1875 15.8125 10.1875 15.8125 8 15 C6.25 12.4375 6.25 12.4375 5 10 C4.67 12.64 4.34 15.28 4 18 C2.68 18 1.36 18 0 18 C0 12.06 0 6.12 0 0 Z " fill="#211819" transform="translate(121,375)"/>
<path d="M0 0 C1.5675 -0.04125 3.135 -0.0825 4.75 -0.125 C5.63171875 -0.14820313 6.5134375 -0.17140625 7.421875 -0.1953125 C10.14906426 0.01129275 11.71315408 0.52694159 14 2 C15.41441874 4.82883747 15.31900332 6.87376745 15 10 C13.4375 11.875 13.4375 11.875 11 13 C7.25 13.1875 7.25 13.1875 4 13 C4 14.65 4 16.3 4 18 C2.68 18 1.36 18 0 18 C0 12.06 0 6.12 0 0 Z " fill="#373737" transform="translate(275,375)"/>
<path d="M0 0 C0.33 0.33 0.66 0.66 1 1 C0.69507637 6.28534292 -0.24260016 9.24260016 -4 13 C-7.75229495 15.86359351 -10.31673304 16.32673956 -15 16 C-16.07399326 13.35632428 -16.26959862 11.6475406 -15.1640625 8.9921875 C-11.64447583 2.91697739 -7.44411272 -0.85075574 0 0 Z " fill="#EFD8DE" transform="translate(286,283)"/>
<path d="M0 0 C1.65 0 3.3 0 5 0 C7.31 5.28 9.62 10.56 12 16 C10.68 16.33 9.36 16.66 8 17 C7.34 16.01 6.68 15.02 6 14 C4.03638136 13.42251197 4.03638136 13.42251197 1.875 13.3125 C-0.043125 13.1578125 -0.043125 13.1578125 -2 13 C-2.33 14.32 -2.66 15.64 -3 17 C-4.32 17 -5.64 17 -7 17 C-5.1668733 11.00067626 -2.92678249 5.55079437 0 0 Z " fill="#151515" transform="translate(324,376)"/>
<path d="M0 0 C0.66 0.33 1.32 0.66 2 1 C-0.25272135 5.74569209 -3.19203864 7.5685935 -7.78515625 9.734375 C-8.44204941 10.05786926 -9.09894257 10.38136353 -9.77574158 10.71466064 C-11.86509532 11.73983804 -13.96333979 12.74508032 -16.0625 13.75 C-17.47784837 14.44010579 -18.89256974 15.13149908 -20.30664062 15.82421875 C-22.88952358 17.08710911 -25.47557338 18.34287466 -28.06665039 19.58886719 C-29.71606343 20.38234262 -31.36288873 21.18144436 -33 22 C-33 21.34 -33 20.68 -33 20 C-33.66 19.67 -34.32 19.34 -35 19 C-32.12652178 15.8582011 -29.41722448 13.96615413 -25.60546875 12.08984375 C-24.56712891 11.57486328 -23.52878906 11.05988281 -22.45898438 10.52929688 C-21.37939453 10.00400391 -20.29980469 9.47871094 -19.1875 8.9375 C-18.11951172 8.40833984 -17.05152344 7.87917969 -15.95117188 7.33398438 C-12.9770898 5.86809482 -9.99363978 4.42546697 -7 3 C-6.2570166 2.64566895 -5.5140332 2.29133789 -4.74853516 1.92626953 C-3.19443001 1.21744302 -1.60070579 0.5961701 0 0 Z " fill="#111111" transform="translate(257,319)"/>
<path d="M0 0 C1.65 0 3.3 0 5 0 C6.17133058 2.45620851 7.33721722 4.91474917 8.5 7.375 C9.00080078 8.42300781 9.00080078 8.42300781 9.51171875 9.4921875 C12 14.7734375 12 14.7734375 12 17 C10.68 17 9.36 17 8 17 C7.67 15.68 7.34 14.36 7 13 C4.03 13 1.06 13 -2 13 C-2.33 14.32 -2.66 15.64 -3 17 C-4.32 17 -5.64 17 -7 17 C-5.1668733 11.00067626 -2.92678249 5.55079437 0 0 Z " fill="#161616" transform="translate(155,376)"/>
<path d="M0 0 C1.32 0 2.64 0 4 0 C4.33 1.98 4.66 3.96 5 6 C5.45375 5.34 5.9075 4.68 6.375 4 C6.91125 3.34 7.4475 2.68 8 2 C8.66 2 9.32 2 10 2 C10 1.34 10 0.68 10 0 C11.65 0 13.3 0 15 0 C13.66536458 1.43229167 12.33072917 2.86458333 10.99609375 4.296875 C9.80241789 5.95716375 9.80241789 5.95716375 10.1875 7.96875 C11.07002599 10.17506498 12.13818847 11.85091796 13.5625 13.75 C14.01753906 14.36359375 14.47257813 14.9771875 14.94140625 15.609375 C15.29074219 16.06828125 15.64007813 16.5271875 16 17 C13.75 17.3125 13.75 17.3125 11 17 C8.8125 14.5 8.8125 14.5 7 12 C6.34 12 5.68 12 5 12 C4.67 13.65 4.34 15.3 4 17 C2.68 17 1.36 17 0 17 C0 11.39 0 5.78 0 0 Z " fill="#121212" transform="translate(198,376)"/>
<path d="M0 0 C4.29 0 8.58 0 13 0 C13 0.99 13 1.98 13 3 C10.03 3 7.06 3 4 3 C4 4.32 4 5.64 4 7 C6.64 7 9.28 7 12 7 C12 7.99 12 8.98 12 10 C9.36 10 6.72 10 4 10 C4 11.32 4 12.64 4 14 C6.97 14 9.94 14 13 14 C13 14.99 13 15.98 13 17 C8.71 17 4.42 17 0 17 C0 11.39 0 5.78 0 0 Z " fill="#141010" transform="translate(366,376)"/>
<path d="M0 0 C4.29 0 8.58 0 13 0 C13 0.99 13 1.98 13 3 C10.03 3 7.06 3 4 3 C4 4.32 4 5.64 4 7 C6.64 7 9.28 7 12 7 C12 7.99 12 8.98 12 10 C9.36 10 6.72 10 4 10 C4 11.32 4 12.64 4 14 C6.97 14 9.94 14 13 14 C13 14.99 13 15.98 13 17 C8.71 17 4.42 17 0 17 C0 11.39 0 5.78 0 0 Z " fill="#100B0C" transform="translate(221,376)"/>
<path d="M0 0 C1 2 1 2 0.0625 5.3515625 C-2.04437904 9.96993712 -5.52372448 11.40766894 -10 13.375 C-10.72445313 13.71660156 -11.44890625 14.05820312 -12.1953125 14.41015625 C-15.10686911 15.76924079 -17.94833241 16.98277747 -21 18 C-21 14.37 -21 10.74 -21 7 C-20.20335937 6.96261719 -19.40671875 6.92523438 -18.5859375 6.88671875 C-11.76941616 6.46379589 -6.39583749 6.05625374 -1.125 1.3125 C-0.75375 0.879375 -0.3825 0.44625 0 0 Z " fill="#FAE0E7" transform="translate(289,296)"/>
<path d="M0 0 C2.375 1 2.375 1 4 2 C3.67 2.99 3.34 3.98 3 5 C2.36191406 4.98839844 1.72382813 4.97679687 1.06640625 4.96484375 C0.24011719 4.95582031 -0.58617187 4.94679688 -1.4375 4.9375 C-2.26121094 4.92589844 -3.08492188 4.91429687 -3.93359375 4.90234375 C-5.99163938 4.76732652 -5.99163938 4.76732652 -7 6 C-7.25005386 8.95817107 -7.25005386 8.95817107 -7 12 C-5.19046912 14.25550736 -5.19046912 14.25550736 -2.625 14.125 C-1.325625 14.063125 -1.325625 14.063125 0 14 C1.32 14 2.64 14 4 14 C3 17 3 17 1 18 C-5.99869622 18.68839635 -5.99869622 18.68839635 -10 15.9375 C-12.51930235 12.23727467 -12.7066341 10.3968344 -12 6 C-8.52603239 0.67324966 -6.27054364 -0.37623262 0 0 Z " fill="#0E0E0E" transform="translate(354,375)"/>
<path d="M0 0 C-0.60541175 3.69909473 -1.65257655 6.71354402 -3.28515625 10.08203125 C-3.95708008 11.47905273 -3.95708008 11.47905273 -4.64257812 12.90429688 C-5.11115234 13.86400391 -5.57972656 14.82371094 -6.0625 15.8125 C-6.53494141 16.79154297 -7.00738281 17.77058594 -7.49414062 18.77929688 C-8.65770684 21.18870167 -9.82646296 23.59544007 -11 26 C-11.94148531 23.17554408 -12.07311695 21.85828382 -11.87890625 18.98828125 C-11.83056641 18.23095703 -11.78222656 17.47363281 -11.73242188 16.69335938 C-11.64831055 15.51483398 -11.64831055 15.51483398 -11.5625 14.3125 C-11.51029297 13.51521484 -11.45808594 12.71792969 -11.40429688 11.89648438 C-11.27480978 9.93063478 -11.13809959 7.96526335 -11 6 C-11.66 5.67 -12.32 5.34 -13 5 C-11.39967863 4.15930585 -9.79458829 3.32768495 -8.1875 2.5 C-6.84751953 1.80390625 -6.84751953 1.80390625 -5.48046875 1.09375 C-3 0 -3 0 0 0 Z " fill="#ECD3DA" transform="translate(282,313)"/>
<path d="M0 0 C0.70125 0.2475 1.4025 0.495 2.125 0.75 C2.125 1.74 2.125 2.73 2.125 3.75 C2.785 4.08 3.445 4.41 4.125 4.75 C2.82949219 5.08644531 2.82949219 5.08644531 1.5078125 5.4296875 C-2.99652987 7.18773337 -6.04576581 10.08813095 -9.55078125 13.29296875 C-12.69303233 16.06364258 -13.50112792 16.75 -17.875 16.75 C-16.07973784 10.36684565 -10.97982396 5.08954482 -5.75 1.1875 C-2.875 -0.25 -2.875 -0.25 0 0 Z " fill="#F0F0F0" transform="translate(223.875,281.25)"/>
<path d="M0 0 C4.95 0 9.9 0 15 0 C15 1.32 15 2.64 15 4 C13.35 4 11.7 4 10 4 C10 8.62 10 13.24 10 18 C8.35 18 6.7 18 5 18 C5 13.38 5 8.76 5 4 C3.35 4 1.7 4 0 4 C0 2.68 0 1.36 0 0 Z " fill="#322B2D" transform="translate(241,375)"/>
<path d="M0 0 C4 5 4 5 5 7 C5.99 7.33 6.98 7.66 8 8 C8.28875 7.030625 8.5775 6.06125 8.875 5.0625 C10 2 10 2 12 1 C12 3.97 12 6.94 12 10 C13.32 10.33 14.64 10.66 16 11 C15.01 11 14.02 11 13 11 C13.33 12.32 13.66 13.64 14 15 C7.07 14.505 7.07 14.505 0 14 C0 9.38 0 4.76 0 0 Z " fill="#F7DEE5" transform="translate(125,383)"/>
<path d="M0 0 C1.32 0.33 2.64 0.66 4 1 C3.67 3.64 3.34 6.28 3 9 C4.0725 8.87625 5.145 8.7525 6.25 8.625 C10 9 10 9 12.4375 11.875 C14 15 14 15 14 17 C12.68 17 11.36 17 10 17 C8.97971135 15.68212715 7.98028616 14.34789347 7 13 C4.90584196 12.20376178 4.90584196 12.20376178 3 12 C3 13.65 3 15.3 3 17 C2.01 17 1.02 17 0 17 C0 11.39 0 5.78 0 0 Z " fill="#020101" transform="translate(175,376)"/>
<path d="M0 0 C1.65 0 3.3 0 5 0 C4.34 2.97 3.68 5.94 3 9 C4.0725 8.690625 5.145 8.38125 6.25 8.0625 C8.82866222 7.33187904 11.39512102 6.62517096 14 6 C13.6875 7.875 13.6875 7.875 13 10 C9.3558226 12.4294516 7.28758728 12.16179575 3 12 C3 13.65 3 15.3 3 17 C2.01 17 1.02 17 0 17 C0 11.39 0 5.78 0 0 Z " fill="#030403" transform="translate(276,376)"/>
<path d="M0 0 C1.32 0 2.64 0 4 0 C4 5.61 4 11.22 4 17 C2.68 17 1.36 17 0 17 C-0.33 14.36 -0.66 11.72 -1 9 C-1.99 9 -2.98 9 -4 9 C-3.52418802 7.68628013 -3.04424851 6.37405454 -2.5625 5.0625 C-2.29566406 4.33160156 -2.02882812 3.60070312 -1.75390625 2.84765625 C-1 1 -1 1 0 0 Z " fill="#100C0C" transform="translate(137,376)"/>
<path d="M0 0 C2.08374618 2.20631948 3.02445138 3.23354148 3.125 6.25 C2.465 6.91 1.805 7.57 1.125 8.25 C1.021875 7.63125 0.91875 7.0125 0.8125 6.375 C0.24974627 3.88473516 0.24974627 3.88473516 -2.875 2.25 C-2.99875 3.384375 -3.1225 4.51875 -3.25 5.6875 C-3.45625 6.863125 -3.6625 8.03875 -3.875 9.25 C-4.865 9.745 -4.865 9.745 -5.875 10.25 C-5.875 7.94 -5.875 5.63 -5.875 3.25 C-7.133125 3.415 -8.39125 3.58 -9.6875 3.75 C-12.13956585 4.07158241 -14.39150694 4.25 -16.875 4.25 C-17.205 2.6 -17.535 0.95 -17.875 -0.75 C-4.35056008 -2.64816701 -4.35056008 -2.64816701 0 0 Z " fill="#1D1214" transform="translate(291.875,280.75)"/>
<path d="M0 0 C1.953125 0.6796875 1.953125 0.6796875 4 2 C4.85344908 5.33720472 4.8225105 8.53895471 5 12 C2.03 13.32 -0.94 14.64 -4 16 C-2.96168893 10.51178434 -1.93581306 5.25434973 0 0 Z " fill="#F0DCE3" transform="translate(301,283)"/>
<path d="M0 0 C0.99 0 1.98 0 3 0 C3 4.62 3 9.24 3 14 C5.97 14 8.94 14 12 14 C12 14.99 12 15.98 12 17 C8.04 17 4.08 17 0 17 C0 11.39 0 5.78 0 0 Z " fill="#010101" transform="translate(299,376)"/>
<path d="M0 0 C0.33 0 0.66 0 1 0 C1 1.65 1 3.3 1 5 C1.66 5.33 2.32 5.66 3 6 C2.071875 7.11375 2.071875 7.11375 1.125 8.25 C-0.60437281 10.48801188 -1.86106661 12.43739987 -3 15 C-3.99 14.67 -4.98 14.34 -6 14 C-6.35412344 12.67203709 -6.68521554 11.33783393 -7 10 C-8.842407 7.82260991 -10.58735866 6.60842756 -13 5 C-10.09399739 3.74335022 -8.20395416 3 -5 3 C-5 4.98 -5 6.96 -5 9 C-2.93597032 8.51294288 -2.93597032 8.51294288 -1 7 C-0.18129815 3.43793339 -0.18129815 3.43793339 0 0 Z " fill="#F6E4E9" transform="translate(267,278)"/>
<path d="M0 0 C1 2 1 2 0.0625 5.375 C-1.72981834 9.42462492 -4.40852638 10.67141947 -8.35546875 12.37109375 C-8.89816406 12.57863281 -9.44085938 12.78617187 -10 13 C-10.33 11.35 -10.66 9.7 -11 8 C-13.31 8 -15.62 8 -18 8 C-18 7.67 -18 7.34 -18 7 C-16.80503906 6.87044922 -16.80503906 6.87044922 -15.5859375 6.73828125 C-8.83682802 5.84332634 -4.72969448 4.99245528 0 0 Z " fill="#E6D1D6" transform="translate(289,296)"/>
<path d="M0 0 C0.99 0 1.98 0 3 0 C3.144375 1.2375 3.28875 2.475 3.4375 3.75 C3.70859727 5.98557023 4.00562539 8.01968887 4.625 10.1875 C5.13298578 12.64276458 4.60142204 14.59431184 4 17 C2.68 17 1.36 17 0 17 C0 11.39 0 5.78 0 0 Z " fill="#0B0A0A" transform="translate(198,376)"/>
<path d="M0 0 C1.59330455 3.1866091 -0.00158523 5.71110429 -1 9 C-1 9.66 -1 10.32 -1 11 C-0.01 11.33 0.98 11.66 2 12 C0 14 0 14 -3.125 14.125 C-4.548125 14.063125 -4.548125 14.063125 -6 14 C-6.8125 12 -6.8125 12 -7 9 C-5.34859485 5.48580984 -3.55035599 1.77517799 0 0 Z " fill="#F2D9E0" transform="translate(277,285)"/>
<path d="M0 0 C1.32 0.33 2.64 0.66 4 1 C3.55074862 5.82945236 2.45263456 8.54736544 -1 12 C-1.99 12 -2.98 12 -4 12 C-4.50423019 6.70558305 -3.18923033 4.18586481 0 0 Z " fill="#151515" transform="translate(307,258)"/>
<path d="M0 0 C1.1446875 0.1546875 1.1446875 0.1546875 2.3125 0.3125 C2.03467314 4.29468499 1.51976652 6.06159842 -1.0625 9.1875 C-3.6875 11.3125 -3.6875 11.3125 -6.6875 11.3125 C-5.44572368 0.63322368 -5.44572368 0.63322368 0 0 Z " fill="#121111" transform="translate(369.6875,263.6875)"/>
<path d="M0 0 C0.96070434 2.88211302 1.10581883 4.69850044 1.0625 7.6875 C1.05347656 8.49574219 1.04445313 9.30398438 1.03515625 10.13671875 C1.02355469 10.75160156 1.01195312 11.36648438 1 12 C0.67 11.01 0.34 10.02 0 9 C-2.97 9 -5.94 9 -9 9 C-9 7.68 -9 6.36 -9 5 C-6.36 5 -3.72 5 -1 5 C-1 4.01 -1 3.02 -1 2 C-3.64 2 -6.28 2 -9 2 C-9 1.67 -9 1.34 -9 1 C-4.545 0.505 -4.545 0.505 0 0 Z " fill="#C2B4B6" transform="translate(379,381)"/>
<path d="M0 0 C0.87527344 0.07863281 1.75054687 0.15726563 2.65234375 0.23828125 C5.0625 0.6875 5.0625 0.6875 8.0625 2.6875 C7.4025 2.6875 6.7425 2.6875 6.0625 2.6875 C6.0625 3.6775 6.0625 4.6675 6.0625 5.6875 C0.1225 4.6975 0.1225 4.6975 -5.9375 3.6875 C-6.2675 2.6975 -6.5975 1.7075 -6.9375 0.6875 C-4.37082316 -0.59583842 -2.84150742 -0.27956094 0 0 Z " fill="#1E1719" transform="translate(377.9375,137.3125)"/>
<path d="M0 0 C1.8125 0.5 1.8125 0.5 4 2 C5.26152609 4.5863924 6.15643045 7.25200829 7 10 C4.5625 9.625 4.5625 9.625 2 9 C1.67 8.34 1.34 7.68 1 7 C-1.32156597 6.59270772 -3.6568787 6.25561323 -6 6 C-5.67 5.34 -5.34 4.68 -5 4 C-3.35 4 -1.7 4 0 4 C0 2.68 0 1.36 0 0 Z " fill="#0C0C0C" transform="translate(329,383)"/>
<path d="M0 0 C-0.53069061 3.82097239 -1.49701566 6.06171403 -4 9 C-4.33 8.01 -4.66 7.02 -5 6 C-5.94875 6.20625 -6.8975 6.4125 -7.875 6.625 C-8.90625 6.74875 -9.9375 6.8725 -11 7 C-11.66 6.34 -12.32 5.68 -13 5 C-11.39967863 4.15930585 -9.79458829 3.32768495 -8.1875 2.5 C-6.84751953 1.80390625 -6.84751953 1.80390625 -5.48046875 1.09375 C-3 0 -3 0 0 0 Z " fill="#E8D5DA" transform="translate(282,313)"/>
<path d="M0 0 C2.5625 2.1875 2.5625 2.1875 5 5 C4.8125 7.8125 4.8125 7.8125 4 10 C2.68 10.33 1.36 10.66 0 11 C-0.99 9.02 -1.98 7.04 -3 5 C-2.505 4.54625 -2.01 4.0925 -1.5 3.625 C0.22609337 2.12364481 0.22609337 2.12364481 0 0 Z " fill="#181314" transform="translate(417,152)"/>
<path d="M0 0 C0.66 0.33 1.32 0.66 2 1 C2 2.32 2 3.64 2 5 C4.97 5 7.94 5 11 5 C11 5.99 11 6.98 11 8 C7.04 8 3.08 8 -1 8 C-1.04241723 5.66705225 -1.04092937 3.33297433 -1 1 C-0.67 0.67 -0.34 0.34 0 0 Z " fill="#050201" transform="translate(368,385)"/>
<path d="M0 0 C0.99 0.33 1.98 0.66 3 1 C2.67 1.99 2.34 2.98 2 4 C3.65 4 5.3 4 7 4 C7 4.66 7 5.32 7 6 C4.69 6 2.38 6 0 6 C-0.33 7.32 -0.66 8.64 -1 10 C-2.32 10 -3.64 10 -5 10 C-4.1875 7.0625 -4.1875 7.0625 -3 4 C-2.01 3.67 -1.02 3.34 0 3 C0 2.01 0 1.02 0 0 Z " fill="#050403" transform="translate(153,383)"/>
<path d="M0 0 C0.99 1.32 1.98 2.64 3 4 C-1.95 6.475 -1.95 6.475 -7 9 C-7.66 8.34 -8.32 7.68 -9 7 C-8.34 7 -7.68 7 -7 7 C-7.33 6.01 -7.66 5.02 -8 4 C-5.36 2.68 -2.72 1.36 0 0 Z " fill="#251D1F" transform="translate(306,294)"/>
<path d="M0 0 C2 1 2 1 4 3 C3.53846154 9.46153846 3.53846154 9.46153846 1 12 C1 11.01 1 10.02 1 9 C-0.98 9.99 -0.98 9.99 -3 11 C-2.69217504 9.35328588 -2.37860766 7.70764424 -2.0625 6.0625 C-1.88847656 5.14597656 -1.71445312 4.22945313 -1.53515625 3.28515625 C-1 1 -1 1 0 0 Z " fill="#040201" transform="translate(289,282)"/>
<path d="M0 0 C2.75 -0.375 2.75 -0.375 6 0 C10 4.84210526 10 4.84210526 10 8 C8.68 8 7.36 8 6 8 C4.97971135 6.68212715 3.98028616 5.34789347 3 4 C0.90584196 3.20376178 0.90584196 3.20376178 -1 3 C-0.67 2.01 -0.34 1.02 0 0 Z " fill="#0B0B0B" transform="translate(179,385)"/>
<path d="M0 0 C1.98 0 3.96 0 6 0 C6.38218767 1.65614657 6.71395102 3.32457024 7 5 C6 6 6 6 2.9375 6.0625 C1.4834375 6.0315625 1.4834375 6.0315625 0 6 C0 4.02 0 2.04 0 0 Z " fill="#E4E4E4" transform="translate(279,379)"/>
<path d="M0 0 C1.98 0 3.96 0 6 0 C6.38218767 1.65614657 6.71395102 3.32457024 7 5 C6 6 6 6 2.9375 6.0625 C1.4834375 6.0315625 1.4834375 6.0315625 0 6 C0 4.02 0 2.04 0 0 Z " fill="#E7E7E7" transform="translate(178,379)"/>
<path d="M0 0 C0.99 0 1.98 0 3 0 C3.66 1.98 4.32 3.96 5 6 C4.34 6 3.68 6 3 6 C2.67 6.66 2.34 7.32 2 8 C0.35 8 -1.3 8 -3 8 C-1.125 2.25 -1.125 2.25 0 0 Z " fill="#191919" transform="translate(327,378)"/>
<path d="M0 0 C0 1.65 0 3.3 0 5 C-4.875 7 -4.875 7 -7 7 C-7 5.02 -7 3.04 -7 1 C-3.375 -1.125 -3.375 -1.125 0 0 Z " fill="#FBE2E9" transform="translate(278,319)"/>
<path d="M0 0 C0.66 0.33 1.32 0.66 2 1 C1.67 1.66 1.34 2.32 1 3 C0.34 3 -0.32 3 -1 3 C-1.33 3.99 -1.66 4.98 -2 6 C-3.65 6.33 -5.3 6.66 -7 7 C-7 7.66 -7 8.32 -7 9 C-8.65 8.67 -10.3 8.34 -12 8 C-8.20182235 4.77730382 -4.42608146 2.25479622 0 0 Z " fill="#E9D3DA" transform="translate(147,170)"/>
<path d="M0 0 C0.66 0 1.32 0 2 0 C1.67 1.65 1.34 3.3 1 5 C1.66 5 2.32 5 3 5 C3 5.66 3 6.32 3 7 C2.01 7 1.02 7 0 7 C0 7.66 0 8.32 0 9 C0.99 9.33 1.98 9.66 3 10 C2.67 10.66 2.34 11.32 2 12 C0.35 12 -1.3 12 -3 12 C-3 8.98509443 -2.48047265 7.13135886 -1.5 4.3125 C-1.2215625 3.50425781 -0.943125 2.69601562 -0.65625 1.86328125 C-0.4396875 1.24839844 -0.223125 0.63351562 0 0 Z " fill="#FDE1E9" transform="translate(278,285)"/>
<path d="M0 0 C0.33 0.66 0.66 1.32 1 2 C1.99 2.33 2.98 2.66 4 3 C4 3.99 4 4.98 4 6 C3.38125 6.268125 2.7625 6.53625 2.125 6.8125 C-0.2995233 7.95556848 -0.2995233 7.95556848 -2 11 C-2.66 10.34 -3.32 9.68 -4 9 C-2.68 6.03 -1.36 3.06 0 0 Z " fill="#ECD4DA" transform="translate(291,309)"/>
<path d="M0 0 C0.66 0 1.32 0 2 0 C1.649375 0.61875 1.29875 1.2375 0.9375 1.875 C0.4734375 2.926875 0.4734375 2.926875 0 4 C0.33 4.66 0.66 5.32 1 6 C-0.62339805 7.70884005 -2.29319053 9.37446717 -4 11 C-4.66 11 -5.32 11 -6 11 C-4.74809374 6.51400257 -3.20614467 3.40652872 0 0 Z " fill="#EAD5DA" transform="translate(116,195)"/>
<path d="M0 0 C5.41538462 -0.36923077 5.41538462 -0.36923077 8.375 1.5 C8.91125 1.995 9.4475 2.49 10 3 C9.67 4.32 9.34 5.64 9 7 C9 6.01 9 5.02 9 4 C6.03 4 3.06 4 0 4 C0 2.68 0 1.36 0 0 Z " fill="#D7C8CD" transform="translate(225,386)"/>
<path d="M0 0 C0.99 0 1.98 0 3 0 C3 0.66 3 1.32 3 2 C5.475 2.99 5.475 2.99 8 4 C5.37801226 6.15377564 3.35595828 7.40072174 0 8 C0 5.36 0 2.72 0 0 Z " fill="#EFD9DF" transform="translate(270,305)"/>
<path d="M0 0 C1.65 0.33 3.3 0.66 5 1 C5 2.32 5 3.64 5 5 C5.66 5.33 6.32 5.66 7 6 C6.01 6.33 5.02 6.66 4 7 C3.01 8.485 3.01 8.485 2 10 C-1.07692308 4.58461538 -1.07692308 4.58461538 -0.6875 1.625 C-0.460625 1.08875 -0.23375 0.5525 0 0 Z " fill="#E7D9DC" transform="translate(298,265)"/>
<path d="M0 0 C2.97 0.33 5.94 0.66 9 1 C9 2.32 9 3.64 9 5 C6.36 4.67 3.72 4.34 1 4 C0.67 2.68 0.34 1.36 0 0 Z " fill="#0D0707" transform="translate(384,140)"/>
<path d="M0 0 C2.97 0 5.94 0 9 0 C9.33 1.32 9.66 2.64 10 4 C8.4221875 3.690625 8.4221875 3.690625 6.8125 3.375 C3.00375113 3.00036896 1.33164248 3.28369933 -2 5 C-1.34 3.35 -0.68 1.7 0 0 Z " fill="#DED0D3" transform="translate(153,389)"/>
<path d="M0 0 C2.64752004 2.57784846 4.94432065 4.91648098 7 8 C4.75 8.3125 4.75 8.3125 2 8 C-2 3.89189189 -2 3.89189189 -2 1 C-1.34 0.67 -0.68 0.34 0 0 Z " fill="#100E0D" transform="translate(207,385)"/>
<path d="M0 0 C2.88575819 0.39803561 3.82189513 0.79009069 5.75 3.0625 C6.36875 4.0215625 6.36875 4.0215625 7 5 C4 5 4 5 2 4 C1.67 4.99 1.34 5.98 1 7 C0.01 6.01 -0.98 5.02 -2 4 C-1.34 2.68 -0.68 1.36 0 0 Z " fill="#131313" transform="translate(130,258)"/>
<path d="M0 0 C0.33 1.65 0.66 3.3 1 5 C-0.98 5.99 -0.98 5.99 -3 7 C-3.33 5.35 -3.66 3.7 -4 2 C-6.31 2 -8.62 2 -11 2 C-11 1.67 -11 1.34 -11 1 C-9.54182203 0.83197949 -8.0834516 0.66562857 -6.625 0.5 C-5.81289063 0.4071875 -5.00078125 0.314375 -4.1640625 0.21875 C-2 0 -2 0 0 0 Z " fill="#D8C4C8" transform="translate(282,302)"/>
<path d="M0 0 C0.66 0.66 1.32 1.32 2 2 C1.625 4.125 1.625 4.125 1 6 C2.65 6 4.3 6 6 6 C6.33 6.66 6.66 7.32 7 8 C4.29120665 9.35439668 1.99066732 9.06501451 -1 9 C-1.80967438 6.08517222 -2.21845993 4.53886783 -1.0625 1.6875 C-0.711875 1.130625 -0.36125 0.57375 0 0 Z " fill="#E5D2D7" transform="translate(272,290)"/>
<path d="M0 0 C3.94727588 -0.17942163 6.5980513 -0.09350689 10 2 C9.67 2.99 9.34 3.98 9 5 C6.69 4.67 4.38 4.34 2 4 C2.33 3.34 2.66 2.68 3 2 C2.01 1.34 1.02 0.68 0 0 Z " fill="#292929" transform="translate(348,375)"/>
<path d="M0 0 C2.475 0.495 2.475 0.495 5 1 C5.33 2.32 5.66 3.64 6 5 C4.02 5.33 2.04 5.66 0 6 C0 4.02 0 2.04 0 0 Z " fill="#E6E4E5" transform="translate(178,388)"/>
<path d="M0 0 C1.32 0.66 2.64 1.32 4 2 C2.63016497 5.16115776 2.0109362 5.9927092 -1 8 C-1.93065133 5.39417629 -2.14917407 4.35801776 -1.0625 1.75 C-0.711875 1.1725 -0.36125 0.595 0 0 Z " fill="#F1D9E0" transform="translate(116,178)"/>
<path d="M0 0 C-1.375 1.5 -1.375 1.5 -3 3 C-3.66 3 -4.32 3 -5 3 C-5 3.66 -5 4.32 -5 5 C-6.32 4.67 -7.64 4.34 -9 4 C-8.34 3.67 -7.68 3.34 -7 3 C-6.67 2.01 -6.34 1.02 -6 0 C-3.42525708 -0.99667468 -2.51072708 -1.25536354 0 0 Z " fill="#F2DAE2" transform="translate(240,383)"/>
<path d="M0 0 C0.99 0.33 1.98 0.66 3 1 C3 1.99 3 2.98 3 4 C1.35 4 -0.3 4 -2 4 C-2 4.66 -2 5.32 -2 6 C-3.32 6.33 -4.64 6.66 -6 7 C-4.19587357 3.73539027 -3.16605307 2.11070205 0 0 Z " fill="#141212" transform="translate(268,347)"/>
<path d="M0 0 C0.33 0 0.66 0 1 0 C1 1.65 1 3.3 1 5 C1.66 5.33 2.32 5.66 3 6 C1.07423885 8.43929746 -0.80090595 10.80090595 -3 13 C-3.66 11.68 -4.32 10.36 -5 9 C-4.0409375 8.7215625 -4.0409375 8.7215625 -3.0625 8.4375 C-0.57873787 7.05753944 -0.57873787 7.05753944 -0.25 3.375 C-0.1675 2.26125 -0.085 1.1475 0 0 Z " fill="#C3B4B7" transform="translate(267,278)"/>
<path d="M0 0 C0.33 0 0.66 0 1 0 C1.33 2.31 1.66 4.62 2 7 C3.32 7 4.64 7 6 7 C6 7.99 6 8.98 6 10 C4.68 10.33 3.36 10.66 2 11 C-0.67927341 6.98108988 -0.15601248 4.75838077 0 0 Z " fill="#302F30" transform="translate(201,376)"/>
<path d="M0 0 C4 4.75 4 4.75 4 7 C3.34 7 2.68 7 2 7 C1.67 7.99 1.34 8.98 1 10 C0.67 10 0.34 10 0 10 C0 6.7 0 3.4 0 0 Z " fill="#DCCACE" transform="translate(125,383)"/>
<path d="M0 0 C0.99 0.66 1.98 1.32 3 2 C1.68 4.31 0.36 6.62 -1 9 C-2.32 8.34 -3.64 7.68 -5 7 C-4.0409375 6.1028125 -4.0409375 6.1028125 -3.0625 5.1875 C-0.79689611 3.09189663 -0.79689611 3.09189663 0 0 Z " fill="#E6E7E6" transform="translate(371,267)"/>
<path d="M0 0 C0.99 0.33 1.98 0.66 3 1 C2.67 2.65 2.34 4.3 2 6 C0.68 6 -0.64 6 -2 6 C-1.34 4.02 -0.68 2.04 0 0 Z " fill="#201314" transform="translate(150,387)"/>
<path d="M0 0 C0.8971875 0.5259375 0.8971875 0.5259375 1.8125 1.0625 C-0.94674185 2.86661967 -2.07722103 3.0752245 -5.4375 2.6875 C-6.345 2.48125 -7.2525 2.275 -8.1875 2.0625 C-3.10054348 -1.32880435 -3.10054348 -1.32880435 0 0 Z " fill="#E5D4D8" transform="translate(260.1875,364.9375)"/>
<path d="M0 0 C0.33 0 0.66 0 1 0 C1 2.64 1 5.28 1 8 C-1.5 6.1875 -1.5 6.1875 -4 4 C-4 3.01 -4 2.02 -4 1 C-3.01 1.33 -2.02 1.66 -1 2 C-0.67 1.34 -0.34 0.68 0 0 Z " fill="#EDDBE1" transform="translate(419,147)"/>
<path d="M0 0 C0.99 0.33 1.98 0.66 3 1 C2.67 2.65 2.34 4.3 2 6 C1.01 5.67 0.02 5.34 -1 5 C-0.67 3.35 -0.34 1.7 0 0 Z " fill="#F8F8F9" transform="translate(203,387)"/>
<path d="M0 0 C2.475 0.495 2.475 0.495 5 1 C4.67 2.32 4.34 3.64 4 5 C4.99 5.33 5.98 5.66 7 6 C6.34 6.66 5.68 7.32 5 8 C2.525 4.04 2.525 4.04 0 0 Z " fill="#E0CFD4" transform="translate(126,378)"/>
<path d="M0 0 C1.98 0 3.96 0 6 0 C6.33 0.99 6.66 1.98 7 3 C4.69 3 2.38 3 0 3 C0 2.01 0 1.02 0 0 Z " fill="#F7F7F6" transform="translate(370,379)"/>
<path d="M0 0 C0.99 1.32 1.98 2.64 3 4 C2.23021995 7.49900021 1.543667 9.456333 -1 12 C-0.67 8.04 -0.34 4.08 0 0 Z " fill="#EDE1E4" transform="translate(271,327)"/>
<path d="M0 0 C0 1.98 0 3.96 0 6 C-0.33 4.68 -0.66 3.36 -1 2 C-1.66 2 -2.32 2 -3 2 C-3 2.66 -3 3.32 -3 4 C-4.65 3.67 -6.3 3.34 -8 3 C-5.36657694 0.36657694 -3.69534435 0 0 0 Z " fill="#CEC5C6" transform="translate(262,281)"/>
<path d="M0 0 C0.99 0.33 1.98 0.66 3 1 C2.40138258 3.35171131 1.73075648 5.6859378 1 8 C0.01 8.495 0.01 8.495 -1 9 C-1.33 7.68 -1.66 6.36 -2 5 C-1.34 5 -0.68 5 0 5 C0 4.34 0 3.68 0 3 C-0.66 2.67 -1.32 2.34 -2 2 C-1.34 2 -0.68 2 0 2 C0 1.34 0 0.68 0 0 Z " fill="#F1D9DF" transform="translate(147,388)"/>
<path d="M0 0 C1.32 0.33 2.64 0.66 4 1 C4.33 2.32 4.66 3.64 5 5 C3.68 5 2.36 5 1 5 C0.67 3.35 0.34 1.7 0 0 Z " fill="#0E0909" transform="translate(162,388)"/>
<path d="M0 0 C3 3.75 3 3.75 3 6 C1.35 6 -0.3 6 -2 6 C-1.34 4.02 -0.68 2.04 0 0 Z " fill="#DDDDDD" transform="translate(326,380)"/>
<path d="M0 0 C0.66 0.33 1.32 0.66 2 1 C2.625 3.5625 2.625 3.5625 3 6 C1.35 6 -0.3 6 -2 6 C-1.34 4.02 -0.68 2.04 0 0 Z " fill="#E0E0DF" transform="translate(157,380)"/>
<path d="M0 0 C0.33 0.66 0.66 1.32 1 2 C0.34 2 -0.32 2 -1 2 C-1.33 2.99 -1.66 3.98 -2 5 C-5.0625 6.1875 -5.0625 6.1875 -8 7 C-5.61042731 3.75700849 -3.7952131 1.49097658 0 0 Z " fill="#E8D4DA" transform="translate(300,302)"/>
<path d="M0 0 C1.65 0 3.3 0 5 0 C4.6875 1.9375 4.6875 1.9375 4 4 C3.01 4.33 2.02 4.66 1 5 C0.34 4.34 -0.32 3.68 -1 3 C-0.34 3 0.32 3 1 3 C0.67 2.01 0.34 1.02 0 0 Z " fill="#1C1316" transform="translate(298,298)"/>
<path d="M0 0 C2.31 0 4.62 0 7 0 C6.01 1.485 6.01 1.485 5 3 C2.375 3.1875 2.375 3.1875 0 3 C0 2.01 0 1.02 0 0 Z " fill="#F8F5F4" transform="translate(370,386)"/>
<path d="M0 0 C0.99 0 1.98 0 3 0 C2.8864371 1.64666203 2.75882619 3.29236082 2.625 4.9375 C2.52058594 6.31228516 2.52058594 6.31228516 2.4140625 7.71484375 C2.27742188 8.46894531 2.14078125 9.22304688 2 10 C1.01 10.495 1.01 10.495 0 11 C0 7.37 0 3.74 0 0 Z " fill="#F7EAEF" transform="translate(268,303)"/>
<path d="M0 0 C0.99 0.33 1.98 0.66 3 1 C3 2.32 3 3.64 3 5 C2.34 5 1.68 5 1 5 C0.67 5.99 0.34 6.98 0 8 C-0.79953138 4.71303767 -1.09658936 3.28976808 0 0 Z " fill="#E4CED4" transform="translate(301,283)"/>
<path d="M0 0 C0 1.65 0 3.3 0 5 C-1.32 5 -2.64 5 -4 5 C-4.33 3.68 -4.66 2.36 -5 1 C-2 0 -2 0 0 0 Z " fill="#EAD4DB" transform="translate(255,274)"/>
<path d="M0 0 C0.99 0.33 1.98 0.66 3 1 C2.34 2.32 1.68 3.64 1 5 C-0.32 4.67 -1.64 4.34 -3 4 C-2.67 3.01 -2.34 2.02 -2 1 C-1.34 0.67 -0.68 0.34 0 0 Z " fill="#0A0506" transform="translate(139,170)"/>
</svg>
